<?xml version="1.0" encoding="utf-8"?>
<!-- Generator: Adobe Illustrator 15.0.0, SVG Export Plug-In  -->
<!DOCTYPE svg PUBLIC "-//W3C//DTD SVG 1.1//EN" "http://www.w3.org/Graphics/SVG/1.1/DTD/svg11.dtd" [
	<!ENTITY ns_flows "http://ns.adobe.com/Flows/1.0/">
]>
<svg version="1.1"
	 xmlns="http://www.w3.org/2000/svg" xmlns:xlink="http://www.w3.org/1999/xlink" xmlns:a="http://ns.adobe.com/AdobeSVGViewerExtensions/3.0/"
	 x="0px" y="0px" width="123px" height="22px" viewBox="-0.826 -0.784 123 22" enable-background="new -0.826 -0.784 123 22"
	 xml:space="preserve">
<defs>
</defs>
<path fill="#3E3532" d="M0,0.33h4.885c2.024,0,3.477,0.726,4.269,2.42c0.638,1.342,0.704,4.511,0.704,5.017
	c0,3.389-0.308,5.347-0.968,6.402c-0.858,1.365-2.464,2.047-5.236,2.047H0V0.33z M2.024,14.457h1.914
	c2.816,0,3.851-1.057,3.851-4.753V6.491c0-3.212-0.99-4.4-3.103-4.4H2.024V14.457z"/>
<path fill="#FF478A" d="M11.88,16.216v-2.707c4.841-6.446,5.853-7.194,5.853-9.109c0-0.77-0.286-1.496-1.166-1.496
	c-1.276,0-1.342,1.21-1.342,2.2h-3.103c-0.22-2.86,1.386-4.444,4.225-4.444c2.663,0,4.489,1.078,4.489,3.96
	c0,3.455-4.026,7.371-5.699,9.219h5.853v2.377H11.88z"/>
<path fill="#3E3532" d="M25.146,8.911v7.305h-2.024V0.33h5.479c2.816,0,3.806,1.98,3.806,3.96c0,1.87-1.034,3.301-2.904,3.63v0.044
	c1.826,0.286,2.486,0.902,2.596,4.093c0.022,0.682,0.242,3.168,0.55,4.158h-2.112c-0.572-1.1-0.44-3.168-0.616-5.281
	C29.767,9,28.204,8.911,27.522,8.911H25.146z M25.146,7.151h3.036c1.452,0,2.156-1.254,2.156-2.64c0-1.144-0.572-2.42-2.134-2.42
	h-3.058V7.151z"/>
<path fill="#3E3532" d="M35.199,5.193C35.199,2.024,36.828,0,40.194,0c3.366,0,4.995,2.024,4.995,5.193v5.215
	c0,1.145-0.484,3.961-1.386,4.356l0.044,0.044c0.286-0.088,1.056-0.352,1.386-0.352h1.584v1.76h-6.601
	c-2.156,0-5.017-0.132-5.017-5.809V5.193z M43.121,10.496V5.126c0-3.322-2.289-3.432-2.926-3.432c-0.638,0-2.927,0.11-2.927,3.432
	v5.369c0,2.641,0.572,4.092,2.949,4.092S43.121,13.136,43.121,10.496z"/>
<path fill="#3E3532" d="M55.638,16.216h-1.893V0.33h3.278l4.005,13.333h0.044L65.121,0.33h3.344v15.886h-2.023V2.09h-0.045
	l-4.444,14.126h-1.914L55.682,2.09h-0.044V16.216z"/>
<path fill="#3E3532" d="M77.572,14.61h-0.045c-0.55,1.276-1.408,1.827-2.794,1.827c-2.354,0-3.036-1.52-3.036-3.653
	c0-3.366,3.3-3.521,5.83-3.455c0.045-1.474,0.066-3.08-1.87-3.08c-1.21,0-1.849,0.814-1.738,1.98h-1.958
	c0.088-2.486,1.408-3.344,3.763-3.344c2.86,0,3.608,1.474,3.608,3.344v5.347c0,0.881,0.088,1.783,0.22,2.641h-1.979V14.61z
	 M73.501,12.916c0,1.078,0.528,2.047,1.738,2.047c1.101,0,2.464-0.683,2.288-4.269C75.812,10.715,73.501,10.562,73.501,12.916z"/>
<path fill="#3E3532" d="M84.809,6.425h0.045c0.615-1.034,1.386-1.54,2.552-1.54c1.782,0,3.587,0.704,3.587,5.589
	c0,2.772-0.088,5.963-3.675,5.963c-1.056,0-1.826-0.463-2.442-1.343h-0.066v5.325h-1.804V5.104h1.804V6.425z M89.1,10.474
	c0-1.672,0-4.115-2.266-4.115c-2.223,0-2.025,3.081-2.025,4.775c0,1.474,0.088,3.829,2.091,3.829
	C88.836,14.962,89.1,13.444,89.1,10.474z"/>
<path fill="#3E3532" d="M95.809,6.425h0.045c0.615-1.034,1.386-1.54,2.552-1.54c1.782,0,3.587,0.704,3.587,5.589
	c0,2.772-0.088,5.963-3.675,5.963c-1.056,0-1.826-0.463-2.442-1.343h-0.066v5.325h-1.804V5.104h1.804V6.425z M100.1,10.474
	c0-1.672,0-4.115-2.266-4.115c-2.223,0-2.025,3.081-2.025,4.775c0,1.474,0.088,3.829,2.091,3.829
	C99.836,14.962,100.1,13.444,100.1,10.474z"/>
<path fill="#3E3532" d="M106.611,11.244c0,3.103,0.836,3.719,2.244,3.719c1.232,0,1.87-0.99,1.936-2.113h1.98
	c-0.021,2.465-1.539,3.588-3.872,3.588c-2.354,0-4.225-0.705-4.225-5.611c0-3.257,0.374-5.941,4.225-5.941
	c3.169,0,3.96,1.738,3.96,5.413v0.946H106.611z M110.945,9.879c0-3.234-0.902-3.63-2.222-3.63c-1.145,0-2.091,0.55-2.112,3.63
	H110.945z"/>
<path fill="#3E3532" d="M117.721,6.777h0.045c0.748-1.694,1.672-1.892,3.432-1.892v1.87c-0.154-0.022-0.33-0.044-0.484-0.066
	c-0.153-0.022-0.308-0.044-0.483-0.044c-2.003,0-2.509,1.518-2.509,3.014v6.557h-1.804V5.104h1.804V6.777z"/>
</svg>
