<svg id="Layer_1" data-name="Layer 1" xmlns="http://www.w3.org/2000/svg" viewBox="0 0 16 13.71"><defs><style>.cls-1{fill:#fff;}</style></defs><title>icon_heart</title><path class="cls-1" d="M9,15.86a.53.53,0,0,1-.39-.16L3,10.32l-.25-.23q-.16-.16-.5-.58a7.91,7.91,0,0,1-.61-.87,5.37,5.37,0,0,1-.48-1.08A3.91,3.91,0,0,1,1,6.32,4.1,4.1,0,0,1,2.13,3.25,4.3,4.3,0,0,1,5.27,2.14a3.56,3.56,0,0,1,1.13.19,4.59,4.59,0,0,1,1.07.52q.5.33.85.61A8.28,8.28,0,0,1,9,4.07a8.28,8.28,0,0,1,.68-.61q.36-.29.85-.61a4.59,4.59,0,0,1,1.07-.52,3.56,3.56,0,0,1,1.13-.19,4.3,4.3,0,0,1,3.13,1.11A4.1,4.1,0,0,1,17,6.32a5.84,5.84,0,0,1-2,4L9.39,15.7A.53.53,0,0,1,9,15.86Z" transform="translate(-1 -2.14)"/></svg>