<?xml version="1.0" encoding="utf-8"?>
<!-- Generator: Adobe Illustrator 21.1.0, SVG Export Plug-In . SVG Version: 6.00 Build 0)  -->
<svg version="1.1" id="Layer_1" xmlns="http://www.w3.org/2000/svg" xmlns:xlink="http://www.w3.org/1999/xlink" x="0px" y="0px"
	 viewBox="0 0 12.6 16.4" style="enable-background:new 0 0 12.6 16.4;" xml:space="preserve">
<style type="text/css">
	.st0{enable-background:new    ;}
	.st1{fill:#FF478A;}
</style>
<title>icon_rdf</title>
<g class="st0">
	<path class="st1" d="M12.4,3.6L8,8v6.6c0,0.2-0.1,0.4-0.3,0.5c-0.1,0-0.2,0-0.2,0c-0.2,0-0.3-0.1-0.4-0.2l-2.3-2.3
		c-0.1-0.1-0.2-0.2-0.2-0.4V8L0.2,3.6C0,3.5,0,3.2,0,3c0.1-0.2,0.3-0.3,0.5-0.3H12c0.2,0,0.4,0.1,0.5,0.3
		C12.6,3.2,12.6,3.5,12.4,3.6z"/>
</g>
</svg>
