<svg id="Layer_1" data-name="Layer 1" xmlns="http://www.w3.org/2000/svg" viewBox="0 0 12.57 13.71"><defs><style>.cls-1{fill:#ff478a;}</style></defs><title>icon_trash</title><g id="trash"><path class="cls-1" d="M14.36,3.43V4a.27.27,0,0,1-.29.29h-.86v8.46A2,2,0,0,1,12.79,14a1.24,1.24,0,0,1-1,.54H4.36a1.26,1.26,0,0,1-1-.52,2,2,0,0,1-.42-1.26V4.29H2.07a.28.28,0,0,1-.21-.08A.28.28,0,0,1,1.78,4V3.43a.27.27,0,0,1,.29-.29H4.83l.63-1.49a1.23,1.23,0,0,1,.48-.56A1.26,1.26,0,0,1,6.64.86H9.5a1.26,1.26,0,0,1,.71.23,1.24,1.24,0,0,1,.48.56l.63,1.49h2.76a.27.27,0,0,1,.29.29ZM6.36,12V5.71a.28.28,0,0,0-.29-.29H5.5a.28.28,0,0,0-.29.29V12a.27.27,0,0,0,.29.29h.57A.27.27,0,0,0,6.36,12ZM6.07,3.14h4l-.43-1A.26.26,0,0,0,9.49,2H6.66a.26.26,0,0,0-.15.1ZM8.64,12V5.71a.28.28,0,0,0-.29-.29H7.78a.27.27,0,0,0-.29.29V12a.28.28,0,0,0,.08.21.28.28,0,0,0,.21.08h.57A.27.27,0,0,0,8.64,12Zm2.29,0V5.71a.27.27,0,0,0-.29-.29h-.57a.27.27,0,0,0-.29.29V12a.29.29,0,0,0,.08.21.28.28,0,0,0,.21.08h.57a.27.27,0,0,0,.29-.29Z" transform="translate(-1.78 -0.86)"/></g></svg>