<?xml version="1.0" encoding="utf-8"?>
<!-- Generator: Adobe Illustrator 21.0.2, SVG Export Plug-In . SVG Version: 6.00 Build 0)  -->
<svg version="1.1" id="Layer_1" xmlns="http://www.w3.org/2000/svg" xmlns:xlink="http://www.w3.org/1999/xlink" x="0px" y="0px"
	 viewBox="0 0 18 18" style="enable-background:new 0 0 18 18;" xml:space="preserve">
<style type="text/css">
	.st0{fill:#FFFFFF;}
</style>
<g>
	<path class="st0" d="M17.3,7c0,0.2-0.1,0.3-0.2,0.4L12.6,12c-0.1,0.1-0.2,0.2-0.4,0.2s-0.3-0.1-0.4-0.2c-0.1-0.1-0.2-0.2-0.2-0.4
		V9.3h-2C9,9.3,8.5,9.3,8,9.3S7.1,9.4,6.7,9.5S5.8,9.8,5.5,9.9s-0.7,0.4-0.9,0.6c-0.3,0.3-0.5,0.6-0.7,0.9c-0.2,0.3-0.3,0.8-0.4,1.2
		s-0.2,1-0.2,1.6c0,0.3,0,0.7,0,1.1c0,0,0,0.1,0,0.2c0,0.1,0,0.2,0,0.2c0,0.1,0,0.2-0.1,0.2c-0.1,0.1-0.1,0.1-0.2,0.1
		c-0.1,0-0.2-0.1-0.2-0.2c0-0.1-0.1-0.1-0.1-0.2c0-0.1-0.1-0.2-0.1-0.3c0-0.1-0.1-0.2-0.1-0.2c-0.8-1.7-1.1-3-1.1-4
		c0-1.2,0.2-2.2,0.5-3c1-2.4,3.6-3.6,7.8-3.6h2V2.4c0-0.2,0.1-0.3,0.2-0.4c0.1-0.1,0.2-0.2,0.4-0.2s0.3,0.1,0.4,0.2l4.6,4.6
		C17.3,6.7,17.3,6.8,17.3,7z"/>
</g>
</svg>
