<?xml version="1.0" encoding="utf-8"?>
<!-- Generator: Adobe Illustrator 21.1.0, SVG Export Plug-In . SVG Version: 6.00 Build 0)  -->
<svg version="1.1" id="Layer_1" xmlns="http://www.w3.org/2000/svg" xmlns:xlink="http://www.w3.org/1999/xlink" x="0px" y="0px"
	 viewBox="0 0 52 32" style="enable-background:new 0 0 52 32;" xml:space="preserve">
<style type="text/css">
	.st0{display:none;fill:#231815;}
	.st1{display:none;fill:#FFFFFF;}
	.st2{fill:#FFFFFF;}
	.st3{fill:none;stroke:#FFFFFF;stroke-width:2;stroke-miterlimit:10;}
	.st4{fill:none;}
</style>
<rect x="4.1" y="0.3" class="st0" width="58.1" height="32.2"/>
<title>icon_rdf</title>
<path id="icon_rdf" class="st1" d="M37.7,20.9c-0.2-0.1-0.4-0.2-0.6-0.3h0.1c0,0-1.3-0.6-1.4-4.7c-0.1-4.1,1.2-4.8,1.2-4.8h-0.2
	c2.8-1.4,3.9-4.9,2.5-7.7s-4.9-3.9-7.7-2.5c-2.2,1.1-3.5,3.6-3.1,6l-0.1-0.1c0,0,0.3,1.5-3.2,3.7s-5.1,1.1-5.1,1.1l0.1,0.1l-0.3-0.2
	c-2.8-1.5-6.3-0.4-7.8,2.4s-0.4,6.3,2.4,7.8c2,1.1,4.5,0.9,6.3-0.6v0.1c0,0,1.3-1,4.9,0.9c2.9,1.5,3.3,3.1,3.4,3.6
	c-0.1,3.2,2.3,5.8,5.5,5.9c3.2,0.1,5.8-2.3,5.9-5.5C40.8,24,39.6,21.9,37.7,20.9z M14,19.7L14,19.7L14,19.7z M20.1,13
	c-0.7-0.7-2.5-0.6-4,0.5c0.2,0.2,0.3,0.5,0.3,0.8c0,0.7-0.5,1.2-1.1,1.3c0,0,0,0,0,0c-0.1,0-0.2,0-0.3,0h-0.1
	c-0.3-0.1-0.7,0-0.8,0.3c-0.8,1.5-0.8,3.1,0,3.9c-1.6-1.7-1.5-4.4,0.1-6C15.6,11.9,18.3,11.6,20.1,13L20.1,13z M30.8,2.8
	c1.5-1.8,4.2-2.1,6-0.6l0,0c-0.7-0.7-2.5-0.5-4,0.5c0.2,0.2,0.3,0.5,0.3,0.8c0,0.7-0.5,1.2-1.1,1.3c-0.1,0-0.2,0-0.4,0h-0.1
	c-0.3-0.1-0.7,0-0.8,0.3c-0.8,1.5-0.8,3.1,0,3.9C29.1,7.1,29.1,4.5,30.8,2.8z M26.6,20.5c-3-1.6-3.5-3-3.5-3.4c0-0.5,0-1-0.1-1.5
	l0,0c0,0-0.2-1.3,3.2-3.5c3.1-1.9,4.5-1.5,4.8-1.4c0.5,0.3,1,0.6,1.6,0.8c0.4,0.4,1.2,1.6,1.3,4.6s-0.8,4.2-1.3,4.6
	c-0.5,0.2-1,0.5-1.4,0.9C30.7,21.8,29.4,22,26.6,20.5L26.6,20.5z M31.7,28.8L31.7,28.8L31.7,28.8z M37.8,22.1
	c-0.7-0.7-2.5-0.5-4,0.5c0.2,0.2,0.3,0.5,0.3,0.8c0,0.7-0.4,1.2-1.1,1.3c-0.1,0-0.2,0-0.4,0h-0.1c-0.3-0.1-0.7,0-0.8,0.3
	c-0.8,1.5-0.8,3.1,0,3.9c-1.6-1.7-1.5-4.4,0.1-6C33.3,21,36,20.7,37.8,22.1L37.8,22.1z"/>
<g>
	<path class="st2" d="M37.7,21c-0.2-0.2-0.3-0.2-0.7-0.3h0.2c0,0-1.3-0.5-1.3-4.7c0-4,1.3-4.7,1.3-4.7H37c1-0.5,1.9-1.3,2.4-2.4
		C40.9,6,39.9,2.6,37,1.1s-6.2-0.5-7.8,2.4c-0.7,1.2-0.8,2.4-0.7,3.5V6.8c0,0,0.3,1.5-3.2,3.7s-5.1,1-5.1,1l0.2,0.2
		c-0.2,0-0.2-0.2-0.3-0.2c-2.9-1.5-6.2-0.5-7.8,2.4s-0.5,6.2,2.4,7.8c2,1.2,4.5,0.8,6.2-0.5l0,0c0,0,1.3-1,4.9,0.8
		c2.9,1.5,3.4,3,3.4,3.7c0,2.2,1,4.2,3,5.2c2.9,1.5,6.2,0.5,7.8-2.4C41.5,25.8,40.5,22.5,37.7,21z M14.1,19.8L14.1,19.8
		C14.1,19.6,14.1,19.8,14.1,19.8L14.1,19.8z M20.2,13c-0.7-0.7-2.5-0.5-4,0.5c0.2,0.2,0.3,0.5,0.3,0.8c0,0.5-0.5,1.2-1.2,1.2
		c0,0-0.2,0-0.3,0c0,0,0,0-0.2,0c-0.3-0.2-0.5,0.2-0.7,0.2c-0.8,1.5-0.8,3,0,3.9c-1.7-1.5-1.5-4.2,0.2-6.1
		C15.8,11.9,18.5,11.5,20.2,13L20.2,13z M30.9,2.9c1.7-1.9,4.4-2.2,6.1-0.7l0,0c-0.7-0.7-2.5-0.5-4,0.5c0.2,0.2,0.3,0.5,0.3,0.8
		c0,0.7-0.5,1.2-1.2,1.2c-0.2,0-0.2,0-0.3,0c0,0,0,0-0.2,0c-0.5-0.2-0.7,0.2-0.8,0.3c-0.8,1.5-0.8,3,0,3.9
		C29.2,7.3,29.2,4.8,30.9,2.9z M26.7,20.6c-3-1.7-3.5-3-3.5-3.4c0-0.5,0-1,0-1.5l0,0c0,0-0.2-1.3,3.2-3.4c3-1.9,4.5-1.5,4.7-1.5
		c0.2,0.2,0.3,0.2,0.5,0.3c0.3,0.2,0.7,0.3,1,0.5c0.5,0.3,1.2,1.5,1.3,4.5c0,3-0.8,4.2-1.3,4.5c-0.5,0.2-1,0.5-1.3,0.8
		C30.8,21.8,29.4,22,26.7,20.6z M31.8,28.9L31.8,28.9L31.8,28.9L31.8,28.9z M37.8,22.1c-0.7-0.7-2.5-0.5-4,0.5
		c0.2,0.2,0.3,0.5,0.3,0.8c0,0.7-0.5,1.2-1.2,1.2c-0.2,0-0.2,0-0.3,0c0,0,0,0-0.2,0c-0.5-0.2-0.7,0.2-0.8,0.3c-0.8,1.5-0.8,3,0,3.9
		c-1.7-1.5-1.5-4.2,0.2-6.1C33.5,21,36.3,20.6,37.8,22.1L37.8,22.1z"/>
	<polyline class="st3" points="45.6,11.5 50.5,17.8 45.6,24 	"/>
	<polyline class="st3" points="6.3,11.5 1.4,17.8 6.3,24 	"/>
	<rect id="_x3C_スライス_x3E__5_" x="-1.6" y="0.4" class="st4" width="53.9" height="32"/>
</g>
</svg>
