<?xml version="1.0" encoding="utf-8"?>
<!-- Generator: Adobe Illustrator 21.1.0, SVG Export Plug-In . SVG Version: 6.00 Build 0)  -->
<svg version="1.1" id="Layer_1" xmlns="http://www.w3.org/2000/svg" xmlns:xlink="http://www.w3.org/1999/xlink" x="0px" y="0px"
	 viewBox="0 0 66 31" style="enable-background:new 0 0 66 31;" xml:space="preserve">
<style type="text/css">
	.st0{fill:#7D5C51;}
</style>
<g>
	<path class="st0" d="M3,29.8L2.4,29c1.6-1.2,3.3-2.4,5-3.4l0.5,0.9C6.3,27.4,4.6,28.5,3,29.8z M59,27.9c-1.6-1.2-3.3-2.2-5-3.2
		l0.5-0.9c1.7,1,3.5,2,5.1,3.2L59,27.9z M12.3,24l-0.4-0.9c1.8-0.9,3.7-1.7,5.6-2.4l0.3,0.9C15.9,22.3,14.1,23.1,12.3,24z
		 M49.6,22.5c-1.8-0.8-3.7-1.4-5.6-2l0.3-1c1.9,0.5,3.9,1.2,5.7,2L49.6,22.5z M22.5,20.3l-0.2-1c2-0.5,4-0.8,6-1l0.1,1
		C26.3,19.5,24.4,19.8,22.5,20.3z M39.1,19.5c-2-0.3-3.9-0.5-5.9-0.5l0-1c2,0,4,0.2,6,0.5L39.1,19.5z"/>
	<g>
		<polygon class="st0" points="6.3,30.3 6.4,29.7 2.9,29.2 3.6,25.8 2.9,25.7 2.1,29.8 		"/>
	</g>
	<g>
		<polygon class="st0" points="58.2,30.2 58.1,29.5 61.6,29.2 61,25.8 61.7,25.7 62.4,29.8 		"/>
	</g>
</g>
<g>
	<g>
		<path class="st0" d="M7.6,17.1c-0.5,0.3-1.5-0.6-1.9-0.9c-0.4,1.3-0.9,2.3-1.8,2.9c-1.4,0.9-2.6,0.6-3.4-0.7
			c-0.9-1.4-0.4-3.8,1.3-4.8c0.3-0.2,0.8-0.5,1.2-0.6c-0.4-0.5-0.7-1.3-1-1.8C1.8,10.7,1,9,1.8,8.5c0.5-0.3,0.9,0.2,0.9,0.6
			c0.1,1.4,1.5,3.6,2.4,4.6c0-0.1,0.1-0.3,0.3-0.3C5.7,13.2,6,13.9,6,14.1c0,0.3,0,0.7,0,0.9c0.1,0.2,0.5,0.5,0.7,0.7
			c0-0.2,0.1-0.4,0.2-0.5c0.3-0.2,0.6,0,0.7,0.1C7.8,15.5,8.2,16.8,7.6,17.1z M3.8,14.2c-0.3-0.1-0.8,0-1.1,0.2
			c-1.1,0.7-2,2.2-1.1,3.6c0.6,1,1.8,0.8,2.5-0.3c0.3-0.6,0.8-1.6,0.8-2.2L3.8,14.2z"/>
		<path class="st0" d="M10,9.5c-0.7,0-1,1-1,1.4c0,0.4,0,1,0.1,1.5c0,0.5,0.4,1.6,0.6,2c0.2,0.4,0.8,1.4,0.2,1.6
			c-0.5,0.2-0.8,0-1.1-0.6c-0.2-0.4-0.8-1.7-1.1-2.3c-0.2-0.4-0.6-0.8-0.8-1.2c-0.2-0.3-0.1-0.7,0.2-0.8c0.1-0.1,0.6-0.2,0.8,0.2
			c0.1,0.2,0.2,0.3,0.3,0.4c-0.1-1.1-0.1-2.5,1-3c0.3-0.2,1.1-0.4,1.4,0.1C10.5,9.1,10.3,9.5,10,9.5z"/>
		<path class="st0" d="M18.1,13.3c-0.5,0.2-0.7-0.6-0.9-0.8c-0.1-0.2-0.4-0.6-0.7-0.4c-0.3,0.5-1.4,1.4-2.7,1.8
			c-0.4,0.1-1.6,0-1.8-0.6c-0.3-1,1.5-2.1,2.3-2.4c0.5-0.2,1.7-0.2,2.1,0c-0.3-0.6-1.3-2-1.7-2.3c-0.4,0.5-1.1,1.5-1.6,1.8
			c-0.3,0.1-0.6,0-0.7-0.3c-0.1-0.4,0.2-0.7,0.4-1c0.2-0.3,1.4-1.6,1.7-1.7c0.6-0.2,1.1,0.2,1.5,0.8c0.4,0.6,0.8,1.4,1.3,2.1
			c0.1,0.2,1.2,2.1,1.3,2.4C18.7,13,18.3,13.2,18.1,13.3z M13.2,12.8c0.4,0.1,0.6,0.1,1.1-0.1c0.4-0.1,1.3-0.9,1.6-1.2
			c-0.3,0-1.2,0.3-1.5,0.4C13.9,12.1,13.3,12.6,13.2,12.8z"/>
		<path class="st0" d="M20.9,15c-0.5,0.1-0.6-0.3-0.6-0.4c0-0.2,0.9-1.6,1.1-1.8c0.3-0.1,0.5-0.1,0.6,0.2c0.4-0.3,2.1-1.5,2-1.8
			c-0.2-0.4-3.1,0.4-3.6,0.5c-0.8,0.2-1.6,0.3-1.8-0.6c-0.1-0.5,0.9-1.3,1.3-1.6c-0.3-0.3-0.4-0.4-0.5-0.8c-0.2-1.1,1.1-2.9,2.3-3.1
			c0.1,0,0.3,0,0.4,0C22.1,5,22,4.1,22.6,4c0.3-0.1,0.6,0,0.7,0.4c0.1,0.5-0.1,1-0.2,1.4c0.1,0.1,0.5,0.5,0.6,0.8
			c0.2,1.3-1,2.5-2.1,2.9c-0.6,0.2-1.6,1.1-1.7,1.2c0.1,0,0.5-0.1,1-0.2c0.6-0.1,1.4-0.3,1.7-0.3c1.1-0.1,2.4-0.1,2.6,0.6
			C25.4,11.9,21.2,14.9,20.9,15z M22,6.4c-0.8,0.2-1.6,1.3-1.5,2.1c0.1,0.7,0.8,0.2,1.2-0.1c0.5-0.4,1-1,0.9-1.5
			C22.6,6.7,22.2,6.4,22,6.4z"/>
		<path class="st0" d="M34.7,8.7c0.4,0.7,0.9,1.1,1.4,1.6c0.1,0.2,0.3,0.4,0.3,0.6c0,0.3-0.3,0.5-0.6,0.5c-0.7,0-1.7-1.4-2.1-2
			c-1.2,0.8-2.5,1.1-3.5,1.2c-1.5,0-1.6-1.2-1.6-2c0-0.6,0.5-1.8,1.1-2.5c0.5-0.6,1-1.1,1.6-1.5c-0.3-0.8-0.5-1.3-0.5-2.2
			c0-0.5,0.4-2.1,1.8-2.1c1.1,0,1.5,0.9,1.5,1.6c0,1.3-0.7,1.9-1.3,2.8c0.1,0.4,1,2.4,1.3,3C34.7,7.4,35,7,35.2,6.5
			c0.1-0.3,0.3-1,0.8-1c0.3,0,0.5,0.4,0.5,0.5C36.6,7,35.6,8.1,34.7,8.7z M30.5,9.5c0.6,0,1.6-0.3,2.7-1c-0.4-0.7-0.9-2.1-1.2-2.9
			c-0.5,0.4-1,0.8-1.4,1.3c-0.5,0.7-0.7,1.3-0.7,1.7C29.8,9.2,30.1,9.5,30.5,9.5z M32.6,1.4c-0.4,0-0.5,0.6-0.5,0.9
			c0,0.3,0.1,0.8,0.3,1.2C32.7,3,33,2.4,32.9,1.8C32.9,1.6,32.8,1.4,32.6,1.4z"/>
		<path class="st0" d="M46.7,12.5C46.1,12.3,46,11,46,10.5c-1.2,0.7-2.2,1.1-3.3,0.8c-1.6-0.3-2.3-1.4-2-2.9C41,6.9,43,5.5,45,5.9
			c0.3,0.1,0.9,0.2,1.3,0.4c0.1-0.7,0.4-1.4,0.5-2c0.1-0.5,0.8-2.3,1.7-2.1c0.6,0.1,0.5,0.7,0.3,1c-0.9,1.1-1.4,3.6-1.5,5
			c0.1-0.1,0.2-0.1,0.4-0.1c0.4,0.2,0.1,0.9,0,1c-0.2,0.2-0.5,0.6-0.6,0.7c0,0.2,0,0.7,0,1c0.1-0.1,0.3-0.2,0.4-0.2
			c0.4,0.1,0.4,0.4,0.4,0.6C47.9,11.4,47.4,12.6,46.7,12.5z M46,7.6c-0.2-0.3-0.5-0.6-0.9-0.6c-1.3-0.3-3,0.3-3.3,1.8
			c-0.2,1.1,0.8,1.8,2,1.5c0.6-0.2,1.7-0.6,2.1-1L46,7.6z"/>
		<path class="st0" d="M53.8,8.6c-0.5-0.5-1.4,0-1.7,0.3c-0.3,0.3-0.7,0.7-1,1.1c-0.3,0.4-0.8,1.4-1,1.8c-0.1,0.4-0.4,1.6-1,1.4
			c-0.5-0.2-0.6-0.6-0.4-1.2c0.1-0.4,0.6-1.8,0.8-2.5c0.1-0.5,0.1-1,0.2-1.4c0.1-0.3,0.4-0.6,0.7-0.4c0.1,0,0.5,0.2,0.4,0.7
			c0,0.2-0.1,0.3-0.1,0.5c0.7-0.9,1.7-1.8,2.7-1.5c0.3,0.1,1.1,0.4,0.9,1C54.3,8.6,54,8.8,53.8,8.6z"/>
		<path class="st0" d="M54,14.6c-1.1-0.5-1.3-1.9-0.9-2.6c0.1-0.3,0.6-0.9,1.1-1.2c1.1-0.6,2.8-0.8,3.8-0.4c1.2,0.5,2.1,1.8,1.5,3
			C58.8,15.1,56,15.5,54,14.6z M57.8,11.4c-1.1-0.5-3-0.1-3.7,1.2c-0.2,0.5,0.1,0.9,0.6,1.2c0.3,0.2,1.1,0.3,1.8,0.2
			c0.9-0.1,1.7-0.5,2-1.1C58.7,12.4,58.4,11.7,57.8,11.4z"/>
		<path class="st0" d="M63.3,13.1c0.2,0.1,0.4,0.1,0.6,0.2c0.2,0.1,0.4,0.2,0.6,0.3c0.9,0.6,1.9,1.6,1.2,2.8c-0.4,0.6-1.4,1.1-2,1.2
			c-0.9,0.2-2.3,0.2-3.2,0.1c-0.3,0.5-0.8,1.2-1.3,1.9c-0.6,0.9-0.9,1.2-1.3,0.9c-0.3-0.2-0.3-0.5,0.2-1.3c0.3-0.5,0.8-1.2,1.2-1.8
			c-0.4-0.1-0.7-0.4-0.5-0.7c0.2-0.4,0.6-0.4,1.1-0.3c0.6-0.9,1.2-1.9,1.7-2.8c-0.2,0-0.5,0-0.8-0.2c-0.2-0.1-0.2-0.5-0.1-0.6
			c0.2-0.4,1.2-0.3,1.6-0.2c0.1-0.2,0.2-0.4,0.3-0.6c0.2-0.2,0.4-0.4,0.8-0.1C63.8,12.3,63.6,12.7,63.3,13.1L63.3,13.1z M61.1,16.6
			c1.6,0.1,3.1-0.1,3.5-0.8c0.3-0.4-0.1-0.9-0.6-1.3c-0.2-0.1-0.7-0.4-1.3-0.6c-0.8,1.3-1.2,1.9-1.3,2.2L61.1,16.6z"/>
	</g>
</g>
</svg>
