<?xml version="1.0" encoding="utf-8"?>
<!-- Generator: Adobe Illustrator 21.1.0, SVG Export Plug-In . SVG Version: 6.00 Build 0)  -->
<svg version="1.1" id="Layer_1" xmlns="http://www.w3.org/2000/svg" xmlns:xlink="http://www.w3.org/1999/xlink" x="0px" y="0px"
	 viewBox="0 0 14.4 16.4" style="enable-background:new 0 0 14.4 16.4;" xml:space="preserve">
<style type="text/css">
	.st0{fill:#FF478A;}
	.st1{enable-background:new    ;}
	.st2{fill:#FFFFFF;}
	.st3{font-family:'FontAwesome';}
	.st4{font-size:16px;}
</style>
<title>icon_rdf</title>
<g>
	<g>
		
			<image style="overflow:visible;opacity:0.2;enable-background:new    ;" width="153" height="51" xlink:href="3CE7E01071F4658.png"  transform="matrix(1 0 0 1 -3 -63.6)">
		</image>
		<g>
			<path class="st0" d="M139.5-58.8H7.5c-2.2,0-4,1.8-4,4v30c0,2.2,1.8,4,4,4h132c2.2,0,4-1.8,4-4v-30
				C143.5-57,141.7-58.8,139.5-58.8z"/>
		</g>
	</g>
	
		<text transform="matrix(1.0077 0 0 1 43.6377 -35.9297)" class="st2" style="font-family:'ITCAvantGardeStd-Md'; font-size:13.8931px;">Release All</text>
	<text transform="matrix(0 1 1 0 31.6074 -47.8333)" class="st2 st3 st4"></text>
	<g>
		<g>
			<g>
				<g>
					
						<image style="overflow:visible;opacity:0.2;enable-background:new    ;" width="123" height="51" xlink:href="3CE7E01071F4659.png"  transform="matrix(1 0 0 1 -132 -63.6)">
					</image>
					<g>
						<path class="st0" d="M-19.5-58.8h-102c-2.2,0-4,1.8-4,4v30c0,2.2,1.8,4,4,4h102c2.2,0,4-1.8,4-4v-30
							C-15.5-57-17.3-58.8-19.5-58.8z"/>
					</g>
				</g>
				
					<text transform="matrix(1.0077 0 0 1 -76.2275 -35.9253)" class="st2" style="font-family:'ITCAvantGardeStd-Md'; font-size:13.8931px;">Add</text>
			</g>
			<text transform="matrix(1 0 0 1 -96.5 -34.8333)" class="st2 st3 st4"></text>
		</g>
	</g>
</g>
<text transform="matrix(0 1 1 0 13.2324 0.1908)" class="st0 st3 st4"></text>
</svg>
