<svg id="Layer_1" data-name="Layer 1" xmlns="http://www.w3.org/2000/svg" viewBox="0 0 13.53 13.53"><defs><style>.cls-1{fill:#ff478a;}</style></defs><title>icon_pencil</title><g id="pencil"><path class="cls-1" d="M8.74,3l3.71,3.71L5,14.14H1.31V10.42ZM4.55,13l.81-.81-2.1-2.1-.81.81v1H3.59V13ZM9.22,4.71a.17.17,0,0,0-.2-.2.2.2,0,0,0-.15.06L4,9.41A.21.21,0,0,0,4,9.56a.17.17,0,0,0,.2.2.21.21,0,0,0,.15-.06L9.15,4.86A.21.21,0,0,0,9.22,4.71Zm5.62-.86a1.1,1.1,0,0,1-.33.8L13,6.14,9.31,2.42,10.79.95a1.06,1.06,0,0,1,.8-.34,1.11,1.11,0,0,1,.81.34L14.5,3A1.15,1.15,0,0,1,14.83,3.85Z" transform="translate(-1.31 -0.61)"/></g></svg>