<svg id="Layer_1" data-name="Layer 1" xmlns="http://www.w3.org/2000/svg" viewBox="0 0 24 28"><defs><style>.cls-1{fill:#fff;}</style></defs><title>icons_json</title><g id="icon_json"><path class="cls-1" d="M27.45,8.82A3.67,3.67,0,0,1,28.2,10a3.62,3.62,0,0,1,.31,1.38v18a1.49,1.49,0,0,1-1.5,1.5H6a1.49,1.49,0,0,1-1.5-1.5v-25A1.49,1.49,0,0,1,6,2.88H20a3.63,3.63,0,0,1,1.38.31,3.66,3.66,0,0,1,1.19.75Zm-.94,20.06v-16H20a1.49,1.49,0,0,1-1.5-1.5V4.88h-12v24ZM20.51,5v5.88h5.88a1.72,1.72,0,0,0-.34-.64L21.15,5.35A1.73,1.73,0,0,0,20.51,5Z" transform="translate(-4.51 -2.88)"/><path class="cls-1" d="M15.56,16.13H14.9c-.65,0-.7.46-.7.78v2.51c0,1.14-1.29,1.28-1.29,1.31.42,0,1.28.23,1.29,1.1v2.54c0,.32,0,.78.7.78h.66v1.51H14A1.65,1.65,0,0,1,12.19,25V22.46c0-.66-.87-.73-1.16-.73V19.66c.29,0,1.16-.08,1.16-.8V16.27A1.65,1.65,0,0,1,14,14.61h1.54Z" transform="translate(-4.51 -2.88)"/><path class="cls-1" d="M17.27,14.61H18.8a1.65,1.65,0,0,1,1.83,1.66v2.59c0,.72.88.8,1.16.8v2.06c-.29,0-1.16.07-1.16.73V25a1.65,1.65,0,0,1-1.83,1.65H17.27V25.14h.66c.65,0,.7-.46.7-.78V21.82c0-.88,1.29-1.13,1.29-1.15a1.19,1.19,0,0,1-1.29-1.26V16.9c0-.32,0-.78-.7-.78h-.66Z" transform="translate(-4.51 -2.88)"/></g></svg>