<?xml version="1.0" encoding="utf-8"?>
<!-- Generator: Adobe Illustrator 15.0.0, SVG Export Plug-In  -->
<!DOCTYPE svg PUBLIC "-//W3C//DTD SVG 1.1//EN" "http://www.w3.org/Graphics/SVG/1.1/DTD/svg11.dtd" [
	<!ENTITY ns_flows "http://ns.adobe.com/Flows/1.0/">
]>
<svg version="1.1"
	 xmlns="http://www.w3.org/2000/svg" xmlns:xlink="http://www.w3.org/1999/xlink" xmlns:a="http://ns.adobe.com/AdobeSVGViewerExtensions/3.0/"
	 x="0px" y="0px" width="363px" height="67px" viewBox="-0.444 -0.003 363 67" enable-background="new -0.444 -0.003 363 67"
	 xml:space="preserve">
<defs>
</defs>
<path fill="#FFFFFF" d="M0,1.008h13.753c14.545,0,16.345,8.497,16.345,26.21c0,17.282-2.52,25.778-18.217,25.778H0V1.008z
	 M4.608,49.108h5.617c13.897,0,15.265-3.744,15.265-24.986c0-14.905-2.016-19.226-14.833-19.226H4.608V49.108z"/>
<path fill="#FF478A" d="M35.496,52.997v-9.121c15.841-21.729,19.153-24.25,19.153-30.702c0-2.595-0.936-5.042-3.816-5.042
	c-4.176,0-4.392,4.079-4.392,7.416H36.288c-0.72-9.641,4.536-14.98,13.825-14.98c8.713,0,14.689,3.634,14.689,13.349
	c0,11.643-13.177,24.843-18.649,31.072h19.154v8.009H35.496z"/>
<path fill="#FFFFFF" d="M76.103,27.794v25.202h-4.608V1.008h14.329c10.009,0,12.529,3.312,12.529,12.457
	c0,6.48-1.08,10.801-8.065,12.385v0.144c7.273,1.512,7.705,2.376,7.705,20.954c0,2.017,0.36,4.033,0.504,6.049h-4.393
	c-0.432-1.512-0.648-10.152-0.72-12.961c-0.072-2.232,1.44-12.241-8.568-12.241H76.103z M76.103,23.906h7.489
	c6.913,0,10.153-1.8,10.153-10.513c0-7.128-2.809-8.497-8.209-8.497h-9.433V23.906z"/>
<path fill="#FFFFFF" d="M122.616,0c16.921,0,15.697,16.921,15.697,27.002c0,13.609-1.08,18.793-5.904,21.962l0.144,0.144h9.073
	v3.889h-9.937c-1.08,0-2.088,0.072-3.096,0.145c-1.08,0.071-2.232,0.144-3.744,0.144c-17.857,0-17.93-9.793-17.93-26.282
	C106.918,16.921,105.694,0,122.616,0z M133.705,27.002c0-13.105,0.144-23.114-11.089-23.114s-11.089,10.009-11.089,23.114
	c0,14.977,1.008,22.395,11.089,22.395C132.409,49.397,133.705,40.18,133.705,27.002z"/>
<path fill="#FFFFFF" d="M163.726,52.997V1.008h7.849l15.337,46.947h0.145l15.121-46.947h7.344v51.988h-4.607V5.473h-0.145
	l-15.266,47.524h-5.328L168.478,5.473h-0.144v47.524H163.726z"/>
<path fill="#FFFFFF" d="M237.816,48.532h-0.145c-2.305,3.457-5.832,5.186-10.297,5.186c-6.48,0-10.009-4.393-10.009-10.729
	c0-12.745,12.817-11.449,20.161-12.025v-3.024c0-5.329-1.584-8.569-7.344-8.569c-3.961,0-7.129,1.944-7.129,6.265h-4.608
	c0.36-6.985,5.761-9.721,12.097-9.721c3.673,0,11.305,0.36,11.305,9.648v18.29c0,2.592,0,4.896,0.433,9.145h-4.464V48.532z
	 M237.527,34.419c-6.191,0.216-15.553-0.504-15.553,8.353c0,4.104,2.088,7.488,6.553,7.488c4.969,0,9-4.465,9-9.217V34.419z"/>
<path fill="#FFFFFF" d="M255.309,21.026l0.144-0.072c2.305-3.528,5.904-5.04,8.785-5.04c11.377,0,11.449,9.937,11.449,14.689v8.136
	c0,9.434-3.24,14.979-12.529,14.979c-2.664,0-5.328-1.297-7.561-4.753l-0.145-0.072V66.75h-4.32V16.633h4.177V21.026z
	 M255.453,38.019c0,8.28,3.744,12.241,7.705,12.241c7.129,0,8.209-5.977,8.209-15.481c0-9.433-1.08-15.409-8.209-15.409
	c-2.809,0-7.705,3.168-7.705,12.169V38.019z"/>
<path fill="#FFFFFF" d="M287.276,21.026l0.144-0.072c2.305-3.528,5.904-5.04,8.785-5.04c11.377,0,11.449,9.937,11.449,14.689v8.136
	c0,9.434-3.24,14.979-12.529,14.979c-2.664,0-5.328-1.297-7.561-4.753l-0.145-0.072V66.75h-4.32V16.633h4.177V21.026z
	 M287.419,38.019c0,8.28,3.744,12.241,7.705,12.241c7.129,0,8.209-5.977,8.209-15.481c0-9.433-1.08-15.409-8.209-15.409
	c-2.809,0-7.705,3.168-7.705,12.169V38.019z"/>
<path fill="#FFFFFF" d="M318.306,35.715v2.809c0,5.04,1.369,11.736,8.209,11.736c5.4,0,8.064-3.456,7.992-8.353h4.537
	c-0.504,8.784-5.257,11.81-12.529,11.81c-6.265,0-12.529-2.521-12.529-13.537v-8.93c0-10.513,4.393-15.337,12.529-15.337
	c12.529,0,12.529,9,12.529,19.802H318.306z M334.724,32.259c0-8.065-1.297-12.889-8.209-12.889s-8.209,4.824-8.209,12.889H334.724z"
	/>
<path fill="#FFFFFF" d="M351.498,21.53h0.145c1.799-3.456,5.615-5.616,10.008-5.616v4.392c-6.12-0.504-10.152,3.168-10.152,9.289
	v23.402h-4.32V16.633h4.32V21.53z"/>
</svg>
