<svg id="Layer_1" data-name="Layer 1" xmlns="http://www.w3.org/2000/svg" viewBox="0 0 26.71 16.13"><defs><style>.cls-1{fill:#ff478a;}</style></defs><title>copy_db</title><path class="cls-1" d="M3.24,1.36a11.8,11.8,0,0,1,2.26-.2,11.8,11.8,0,0,1,2.26.2,5.44,5.44,0,0,1,1.64.55q.6.35.6.75v.75q0,.4-.6.75a5.44,5.44,0,0,1-1.64.55,11.8,11.8,0,0,1-2.26.2,11.8,11.8,0,0,1-2.26-.2A5.44,5.44,0,0,1,1.6,4.16Q1,3.81,1,3.41V2.66q0-.4.6-.75A5.44,5.44,0,0,1,3.24,1.36Zm-.34,4a12.7,12.7,0,0,0,2.6.25,12.7,12.7,0,0,0,2.6-.25A5.11,5.11,0,0,0,10,4.66v1q0,.4-.6.75A5.44,5.44,0,0,1,7.76,7a11.8,11.8,0,0,1-2.26.2A11.8,11.8,0,0,1,3.24,7,5.44,5.44,0,0,1,1.6,6.41Q1,6.06,1,5.66v-1A5.11,5.11,0,0,0,2.9,5.41Zm0,2.25a12.7,12.7,0,0,0,2.6.25,12.7,12.7,0,0,0,2.6-.25A5.11,5.11,0,0,0,10,6.91v1q0,.4-.6.75a5.44,5.44,0,0,1-1.64.55,11.8,11.8,0,0,1-2.26.2,11.8,11.8,0,0,1-2.26-.2A5.44,5.44,0,0,1,1.6,8.66Q1,8.31,1,7.91v-1A5.11,5.11,0,0,0,2.9,7.66Zm0,2.25a12.7,12.7,0,0,0,2.6.25,12.7,12.7,0,0,0,2.6-.25A5.11,5.11,0,0,0,10,9.16v1q0,.4-.6.75a5.44,5.44,0,0,1-1.64.55,11.8,11.8,0,0,1-2.26.2,11.8,11.8,0,0,1-2.26-.2,5.44,5.44,0,0,1-1.64-.55q-.6-.35-.6-.75v-1A5.11,5.11,0,0,0,2.9,9.91Z" transform="translate(-1 -1.16)"/><path class="cls-1" d="M17.42,1.59a18,18,0,0,1,3.44-.31,18,18,0,0,1,3.44.31,8.31,8.31,0,0,1,2.5.83q.92.53.92,1.14V4.71q0,.62-.92,1.14a8.29,8.29,0,0,1-2.5.83A18,18,0,0,1,20.86,7a18,18,0,0,1-3.44-.31,8.28,8.28,0,0,1-2.5-.83Q14,5.33,14,4.71V3.57q0-.62.92-1.14A8.31,8.31,0,0,1,17.42,1.59ZM16.9,7.76a19.31,19.31,0,0,0,4,.38,19.32,19.32,0,0,0,4-.38,7.79,7.79,0,0,0,2.9-1.13V8.14q0,.62-.92,1.14a8.31,8.31,0,0,1-2.5.84,18,18,0,0,1-3.44.31,18,18,0,0,1-3.44-.31,8.31,8.31,0,0,1-2.5-.84Q14,8.76,14,8.14V6.63A7.79,7.79,0,0,0,16.9,7.76Zm0,3.43a19.34,19.34,0,0,0,4,.38,19.36,19.36,0,0,0,4-.38,7.79,7.79,0,0,0,2.9-1.13v1.52q0,.62-.92,1.14a8.32,8.32,0,0,1-2.5.83,18,18,0,0,1-3.44.31,18,18,0,0,1-3.44-.31,8.31,8.31,0,0,1-2.5-.83Q14,12.19,14,11.57V10.05A7.79,7.79,0,0,0,16.9,11.19Zm0,3.43a19.34,19.34,0,0,0,4,.38,19.36,19.36,0,0,0,4-.38,7.79,7.79,0,0,0,2.9-1.13V15q0,.62-.92,1.14a8.29,8.29,0,0,1-2.5.83,17.93,17.93,0,0,1-3.44.31A17.92,17.92,0,0,1,17.42,17a8.28,8.28,0,0,1-2.5-.83Q14,15.62,14,15V13.48A7.79,7.79,0,0,0,16.9,14.62Z" transform="translate(-1 -1.16)"/><polygon class="cls-1" points="11.71 14.84 4 14.84 4 10.34 5 10.34 5 13.84 9.29 13.84 8.15 12.69 8.85 11.99 11.71 14.84"/></svg>