<svg id="Layer_1" data-name="Layer 1" xmlns="http://www.w3.org/2000/svg" viewBox="0 0 84.72 38.19"><defs><style>.cls-1{fill:#004098;}.cls-2{fill:#97bdc0;}</style></defs><title>dbcls_logo</title><g id="DBCLS"><path class="cls-1" d="M28.54,8.25h3.94c4,0,7.11,2.45,7.11,6.55,0,4.47-2.71,6.78-7.11,6.78H28.54ZM30.45,19.9h2c3.29,0,5.1-1.59,5.1-5a4.65,4.65,0,0,0-4.87-4.95H30.45Z"/><path class="cls-1" d="M42.34,8.25h3.61c2.77,0,4.68.9,4.68,3.36,0,1.83-1.07,2.75-2.75,3.17v0A3.12,3.12,0,0,1,51,18c0,2.87-2.37,3.55-5.08,3.55H42.34Zm1.91,5.69H45.3c1.85,0,3.42-.17,3.42-2.14,0-1.59-1.36-2-2.46-2h-2Zm0,6.08h1.43c1.72,0,3.27-.36,3.27-2.16,0-2.06-1.81-2.35-3.46-2.35H44.25Z"/><path class="cls-1" d="M63.34,10.45a5.36,5.36,0,0,0-2.75-.75,5,5,0,0,0-5.12,5.22,5,5,0,0,0,5,5.22,6.57,6.57,0,0,0,2.9-.65l.11,1.85a8.34,8.34,0,0,1-3,.48c-4.22,0-7-2.71-7-7S56.42,8,60.49,8a7.35,7.35,0,0,1,3,.57Z"/><path class="cls-1" d="M65.79,8.25H67.7V19.9h5.58v1.68H65.79Z"/><path class="cls-1" d="M81.42,10.26a5.87,5.87,0,0,0-2.5-.55c-1.07,0-2.33.38-2.33,1.78,0,2.56,5.73,2,5.73,6.36,0,2.85-2.2,4-4.87,4a8.92,8.92,0,0,1-2.73-.55l.19-1.78a8.09,8.09,0,0,0,2.77.65c1.09,0,2.62-.61,2.62-2.18,0-3-5.73-2.16-5.73-6.3C74.56,9.28,76.44,8,78.84,8a8.88,8.88,0,0,1,2.85.48Z"/><path class="cls-1" d="M28.93,23.73h1c1.12,0,2.1.38,2.1,1.82s-1,1.82-2.1,1.82h-1Zm.73,3.06h.41a1.25,1.25,0,0,0,0-2.49h-.41Z"/><path class="cls-1" d="M32.75,24.82a2.41,2.41,0,0,1,.93-.2c.82,0,1.16.34,1.16,1.13v.34c0,.27,0,.47,0,.67s0,.39,0,.6h-.61a3.45,3.45,0,0,1,0-.4h0a1,1,0,0,1-.83.46.86.86,0,0,1-.94-.8.79.79,0,0,1,.46-.77,2.13,2.13,0,0,1,.9-.16h.39c0-.43-.19-.58-.6-.58a1.4,1.4,0,0,0-.83.29Zm.82,2.1a.6.6,0,0,0,.49-.24.89.89,0,0,0,.15-.55h-.3c-.31,0-.78.05-.78.46C33.13,26.82,33.32,26.92,33.57,26.92Z"/><path class="cls-1" d="M35.77,25.19h-.52v-.51h.52v-.54l.7-.22v.76h.62v.51h-.62v1.25c0,.23.06.44.33.44a.63.63,0,0,0,.32-.07l0,.55a1.82,1.82,0,0,1-.52.06.79.79,0,0,1-.85-.87Z"/><path class="cls-1" d="M37.68,24.82a2.41,2.41,0,0,1,.93-.2c.82,0,1.16.34,1.16,1.13v.34c0,.27,0,.47,0,.67s0,.39,0,.6H39.2a3.45,3.45,0,0,1,0-.4h0a1,1,0,0,1-.83.46.86.86,0,0,1-.94-.8.79.79,0,0,1,.46-.77,2.13,2.13,0,0,1,.9-.16h.39c0-.43-.19-.58-.6-.58a1.4,1.4,0,0,0-.83.29Zm.82,2.1a.6.6,0,0,0,.49-.24.89.89,0,0,0,.15-.55h-.3c-.31,0-.78.05-.78.46C38.06,26.82,38.25,26.92,38.5,26.92Z"/><path class="cls-1" d="M40.46,23.45h.7V25h0a.94.94,0,0,1,.8-.41c.82,0,1.13.66,1.13,1.4s-.3,1.41-1.13,1.41a1,1,0,0,1-.82-.39h0v.33h-.68Zm1.32,3.43c.46,0,.59-.5.59-.87s-.12-.85-.58-.85-.63.48-.63.85S41.32,26.88,41.78,26.88Z"/><path class="cls-1" d="M43.77,24.82a2.41,2.41,0,0,1,.93-.2c.82,0,1.16.34,1.16,1.13v.34c0,.27,0,.47,0,.67s0,.39,0,.6h-.61a3.45,3.45,0,0,1,0-.4h0a1,1,0,0,1-.83.46.86.86,0,0,1-.94-.8.79.79,0,0,1,.46-.77,2.13,2.13,0,0,1,.9-.16h.39c0-.43-.19-.58-.6-.58a1.4,1.4,0,0,0-.83.29Zm.82,2.1a.6.6,0,0,0,.49-.24.89.89,0,0,0,.15-.55h-.3c-.31,0-.78.05-.78.46C44.15,26.82,44.34,26.92,44.59,26.92Z"/><path class="cls-1" d="M48.15,25.24a1.73,1.73,0,0,0-.63-.11c-.19,0-.41.07-.41.3,0,.43,1.21.16,1.21,1.13,0,.62-.56.87-1.13.87a3.13,3.13,0,0,1-.79-.11l0-.57a1.54,1.54,0,0,0,.69.18c.18,0,.46-.07.46-.33,0-.53-1.21-.17-1.21-1.14,0-.58.5-.83,1.05-.83a3.23,3.23,0,0,1,.76.1Z"/><path class="cls-1" d="M51,27.21a1.83,1.83,0,0,1-.92.21A1.27,1.27,0,0,1,48.69,26a1.25,1.25,0,0,1,1.25-1.42c1,0,1.28.68,1.28,1.62H49.36a.7.7,0,0,0,.77.68,1.81,1.81,0,0,0,.89-.27Zm-.47-1.45c0-.34-.18-.63-.57-.63a.61.61,0,0,0-.62.63Z"/><path class="cls-1" d="M55.93,27.31a3.71,3.71,0,0,1-.83.11,1.75,1.75,0,0,1-2-1.82,1.8,1.8,0,0,1,2-1.94,2.4,2.4,0,0,1,.82.15l-.05.61a1.49,1.49,0,0,0-.79-.19,1.21,1.21,0,0,0-1.22,1.32,1.2,1.2,0,0,0,1.24,1.3,2,2,0,0,0,.8-.15Z"/><path class="cls-1" d="M58.55,27.21a1.83,1.83,0,0,1-.92.21A1.27,1.27,0,0,1,56.23,26a1.25,1.25,0,0,1,1.25-1.42c1,0,1.28.68,1.28,1.62H56.9a.7.7,0,0,0,.77.68,1.81,1.81,0,0,0,.89-.27Zm-.47-1.45c0-.34-.18-.63-.57-.63a.61.61,0,0,0-.62.63Z"/><path class="cls-1" d="M59.3,24.68H60V25h0a1,1,0,0,1,.88-.43c.64,0,.91.45.91,1.05v1.69h-.7V25.93c0-.33,0-.77-.45-.77s-.61.55-.61.89v1.31h-.7Z"/><path class="cls-1" d="M62.72,25.19H62.2v-.51h.52v-.54l.7-.22v.76H64v.51h-.62v1.25c0,.23.06.44.33.44a.63.63,0,0,0,.32-.07l0,.55a1.82,1.82,0,0,1-.52.06.79.79,0,0,1-.85-.87Z"/><path class="cls-1" d="M66.67,27.21a1.83,1.83,0,0,1-.92.21A1.27,1.27,0,0,1,64.35,26a1.25,1.25,0,0,1,1.25-1.42c1,0,1.28.68,1.28,1.62H65a.7.7,0,0,0,.77.68,1.81,1.81,0,0,0,.89-.27Zm-.47-1.45c0-.34-.18-.63-.57-.63a.61.61,0,0,0-.62.63Z"/><path class="cls-1" d="M67.43,24.68h.62v.61h0a.82.82,0,0,1,.73-.67.79.79,0,0,1,.21,0v.7a.71.71,0,0,0-.31-.06c-.57,0-.57.71-.57,1.09v1h-.7Z"/><path class="cls-1" d="M29.13,30.61h-.52V30.1h.52v-.38a.82.82,0,0,1,.85-.91,2.47,2.47,0,0,1,.51.06l-.06.58a.54.54,0,0,0-.3-.09c-.23,0-.31.2-.31.41v.33h.61v.51h-.61v2.17h-.7Z"/><path class="cls-1" d="M32.13,30a1.34,1.34,0,0,1,1.41,1.42,1.4,1.4,0,0,1-2.81,0A1.34,1.34,0,0,1,32.13,30Zm0,2.27c.54,0,.68-.48.68-.93a.68.68,0,1,0-1.35,0C31.46,31.82,31.6,32.3,32.13,32.3Z"/><path class="cls-1" d="M34.1,30.1h.62v.61h0a.82.82,0,0,1,.73-.67.79.79,0,0,1,.21,0v.7a.71.71,0,0,0-.31-.06c-.57,0-.57.71-.57,1.09v1h-.7Z"/><path class="cls-1" d="M37.63,29.14h.73v3.06h1.41v.57H37.63Z"/><path class="cls-1" d="M40.19,28.94h.7v.67h-.7Zm0,1.16h.7v2.68h-.7Z"/><path class="cls-1" d="M41.88,30.61h-.52V30.1h.52v-.38a.82.82,0,0,1,.85-.91,2.47,2.47,0,0,1,.51.06l-.06.58a.54.54,0,0,0-.3-.09c-.23,0-.31.2-.31.41v.33h.61v.51h-.61v2.17h-.7Z"/><path class="cls-1" d="M45.8,32.63a1.83,1.83,0,0,1-.92.21,1.27,1.27,0,0,1-1.4-1.39A1.25,1.25,0,0,1,44.72,30c1,0,1.28.68,1.28,1.62H44.15a.7.7,0,0,0,.77.68,1.81,1.81,0,0,0,.89-.27Zm-.47-1.45c0-.34-.18-.63-.57-.63a.61.61,0,0,0-.62.63Z"/><path class="cls-1" d="M50,29.81a1.89,1.89,0,0,0-.74-.16.51.51,0,0,0-.57.5c0,.63,1.6.36,1.6,1.58,0,.8-.63,1.1-1.37,1.1A3.23,3.23,0,0,1,48,32.7l.07-.66a1.76,1.76,0,0,0,.82.22c.28,0,.65-.14.65-.47,0-.69-1.59-.41-1.59-1.61,0-.81.63-1.11,1.27-1.11a2.73,2.73,0,0,1,.87.13Z"/><path class="cls-1" d="M52.64,30.67a1.06,1.06,0,0,0-.47-.1c-.43,0-.71.34-.71.85s.23.88.72.88a1.47,1.47,0,0,0,.54-.13l0,.58a2.28,2.28,0,0,1-.7.09A1.41,1.41,0,0,1,52,30a2.29,2.29,0,0,1,.68.09Z"/><path class="cls-1" d="M53.23,28.94h.7v.67h-.7Zm0,1.16h.7v2.68h-.7Z"/><path class="cls-1" d="M56.82,32.63a1.83,1.83,0,0,1-.92.21,1.27,1.27,0,0,1-1.4-1.39A1.25,1.25,0,0,1,55.74,30c1,0,1.28.68,1.28,1.62H55.16a.7.7,0,0,0,.77.68,1.81,1.81,0,0,0,.89-.27Zm-.47-1.45c0-.34-.18-.63-.57-.63a.61.61,0,0,0-.62.63Z"/><path class="cls-1" d="M57.57,30.1h.66v.36h0a1,1,0,0,1,.88-.43c.64,0,.91.45.91,1.05v1.69h-.7V31.35c0-.33,0-.77-.45-.77s-.61.55-.61.89v1.31h-.7Z"/><path class="cls-1" d="M62.49,30.67a1.06,1.06,0,0,0-.47-.1c-.43,0-.71.34-.71.85s.23.88.72.88a1.47,1.47,0,0,0,.54-.13l0,.58a2.28,2.28,0,0,1-.7.09,1.41,1.41,0,0,1,0-2.81,2.29,2.29,0,0,1,.68.09Z"/><path class="cls-1" d="M65.22,32.63a1.83,1.83,0,0,1-.92.21,1.27,1.27,0,0,1-1.4-1.39A1.25,1.25,0,0,1,64.14,30c1,0,1.28.68,1.28,1.62H63.56a.7.7,0,0,0,.77.68,1.81,1.81,0,0,0,.89-.27Zm-.47-1.45c0-.34-.18-.63-.57-.63a.61.61,0,0,0-.62.63Z"/><rect class="cls-2" x="14.58" y="8.34" width="1.3" height="5.14"/><rect class="cls-2" x="17.73" y="9.56" width="1.04" height="5.14"/><rect class="cls-2" x="16.24" y="8.95" width="1.18" height="5.14"/><rect class="cls-2" x="12.77" y="7.73" width="1.39" height="5.14"/><rect class="cls-2" x="6.41" y="5.12" width="0.62" height="5.14"/><rect class="cls-2" x="19.01" y="10.18" width="0.88" height="5.14"/><rect class="cls-2" x="5.08" y="4.04" width="0.33" height="5.14"/><rect class="cls-2" x="3.51" y="2.02" width="0.18" height="5.14"/><rect class="cls-2" x="10.96" y="7.12" width="1.33" height="5.14"/><rect class="cls-2" x="7.81" y="5.86" width="0.88" height="5.14"/><rect class="cls-2" x="9.3" y="6.49" width="1.11" height="5.14"/><rect class="cls-2" x="20.87" y="11.4" width="0.45" height="5.14"/><path class="cls-2" d="M21.38,12.05v5.14c0-.08.16,0,.16,0V12.05Z"/><rect class="cls-2" x="20.07" y="10.79" width="0.68" height="5.14"/><path class="cls-2" d="M3.51,17.19a1.16,1.16,0,0,0,.19.61,2.84,2.84,0,0,0,.57.63,6.54,6.54,0,0,0,.81.59c.33.21.69.41,1.09.61s.86.41,1.31.61,1,.41,1.51.61,1.15.42,1.69.61l1.84.61,1.84.61c.55.19,1.12.39,1.69.61s1,.4,1.51.61.9.4,1.31.61.76.4,1.09.61a6.67,6.67,0,0,1,.83.61,2.77,2.77,0,0,1,.54.61,1.15,1.15,0,0,1,.19.61V21.77a1.15,1.15,0,0,0-.19-.61,2.77,2.77,0,0,0-.54-.61A6.53,6.53,0,0,0,20,20c-.33-.21-.69-.41-1.09-.61s-.86-.41-1.31-.61-1-.42-1.51-.61-1.14-.42-1.69-.61l-1.84-.61-1.84-.61c-.55-.19-1.12-.39-1.69-.61s-1-.4-1.51-.61-.9-.4-1.31-.61-.76-.4-1.09-.61a6.54,6.54,0,0,1-.81-.59,2.82,2.82,0,0,1-.57-.63,1.15,1.15,0,0,1-.19-.61Z"/><path class="cls-1" d="M21.55,26.91a1.15,1.15,0,0,1-.19.61,2.8,2.8,0,0,1-.57.63,6.84,6.84,0,0,1-.81.59c-.33.21-.69.41-1.09.61s-.86.41-1.31.61-1,.41-1.51.61-1.15.42-1.69.61l-1.84.61-1.84.61c-.55.19-1.12.39-1.69.61s-1,.4-1.51.61-.9.4-1.31.61-.76.4-1.09.61a6.54,6.54,0,0,0-.83.61A2.81,2.81,0,0,0,3.7,36a1.16,1.16,0,0,0-.19.61V31.5a1.16,1.16,0,0,1,.19-.61,2.77,2.77,0,0,1,.54-.61,6.69,6.69,0,0,1,.83-.61c.33-.21.69-.41,1.09-.61s.86-.41,1.31-.61,1-.41,1.51-.61,1.15-.42,1.69-.61l1.84-.61L14.37,26c.55-.19,1.12-.39,1.69-.61s1-.4,1.51-.61.9-.4,1.31-.61.76-.4,1.09-.61a6.84,6.84,0,0,0,.81-.59,2.8,2.8,0,0,0,.57-.63,1.15,1.15,0,0,0,.19-.61Z"/><path class="cls-1" d="M21.55,17.19a1.16,1.16,0,0,1-.19.61,2.83,2.83,0,0,1-.57.63A6.68,6.68,0,0,1,20,19c-.33.21-.69.41-1.09.61s-.86.41-1.31.61-1,.41-1.51.61-1.15.42-1.69.61l-1.84.61-1.84.61c-.55.19-1.12.39-1.69.61s-1,.4-1.51.61-.9.4-1.31.61-.76.4-1.09.61a6.68,6.68,0,0,0-.83.61,2.8,2.8,0,0,0-.54.61,1.16,1.16,0,0,0-.19.61V21.77a1.16,1.16,0,0,1,.19-.61,2.81,2.81,0,0,1,.54-.61A6.54,6.54,0,0,1,5.08,20c.33-.21.69-.41,1.09-.61s.86-.41,1.31-.61,1-.41,1.51-.61,1.15-.42,1.69-.61l1.84-.61,1.84-.61c.55-.19,1.12-.39,1.69-.61s1-.4,1.51-.61.9-.4,1.31-.61.76-.4,1.09-.61a6.68,6.68,0,0,0,.81-.59,2.8,2.8,0,0,0,.57-.63,1.15,1.15,0,0,0,.19-.61Z"/><rect class="cls-1" x="9.17" y="8.34" width="1.3" height="5.14"/><rect class="cls-1" x="6.29" y="9.56" width="1.04" height="5.14"/><rect class="cls-1" x="7.63" y="8.95" width="1.18" height="5.14"/><rect class="cls-1" x="10.9" y="7.73" width="1.39" height="5.14"/><rect class="cls-1" x="18.03" y="5.12" width="0.62" height="5.14"/><rect class="cls-1" x="5.17" y="10.18" width="0.88" height="5.14"/><rect class="cls-1" x="19.64" y="4.04" width="0.33" height="5.14"/><rect class="cls-1" x="21.36" y="2.02" width="0.18" height="5.14"/><rect class="cls-1" x="12.77" y="7.12" width="1.33" height="5.14"/><rect class="cls-1" x="16.37" y="5.86" width="0.88" height="5.14"/><rect class="cls-1" x="14.64" y="6.49" width="1.11" height="5.14"/><rect class="cls-1" x="3.73" y="11.4" width="0.45" height="5.14"/><path class="cls-1" d="M3.67,12.05v5.14c0-.08-.16,0-.16,0V12.05Z"/><rect class="cls-1" x="4.3" y="10.79" width="0.68" height="5.14"/></g></svg>