<svg id="Layer_1" data-name="Layer 1" xmlns="http://www.w3.org/2000/svg" viewBox="0 0 13.71 13.71"><defs><style>.cls-1{fill:#ff478a;}</style></defs><title>icon_setting</title><path class="cls-1" d="M15.86,8v2a.34.34,0,0,1-.07.21.28.28,0,0,1-.18.12L14,10.58a5.71,5.71,0,0,1-.35.81q.31.45,1,1.23a.35.35,0,0,1,.09.22.31.31,0,0,1-.08.21,9.22,9.22,0,0,1-.88,1q-.64.63-.84.63a.45.45,0,0,1-.23-.08l-1.23-1a5.22,5.22,0,0,1-.81.34,14.62,14.62,0,0,1-.26,1.66.3.3,0,0,1-.32.25H8a.34.34,0,0,1-.22-.08.26.26,0,0,1-.1-.19l-.25-1.64a5.55,5.55,0,0,1-.8-.33l-1.26,1a.32.32,0,0,1-.22.08.31.31,0,0,1-.22-.1,11.92,11.92,0,0,1-1.47-1.5.36.36,0,0,1-.06-.21.35.35,0,0,1,.07-.21L3.92,12l.48-.63A4.37,4.37,0,0,1,4,10.54L2.4,10.29a.28.28,0,0,1-.19-.11A.34.34,0,0,1,2.14,10V8a.35.35,0,0,1,.07-.21.27.27,0,0,1,.17-.12L4,7.42a4.38,4.38,0,0,1,.35-.82q-.36-.51-1-1.23a.33.33,0,0,1-.09-.21.38.38,0,0,1,.08-.21,8.87,8.87,0,0,1,.88-1q.65-.64.84-.64a.38.38,0,0,1,.23.09l1.23,1a5.07,5.07,0,0,1,.81-.34,14.65,14.65,0,0,1,.26-1.66A.3.3,0,0,1,8,2.14h2a.34.34,0,0,1,.22.08.26.26,0,0,1,.1.19l.25,1.64a5.51,5.51,0,0,1,.8.33l1.27-1a.29.29,0,0,1,.21-.08.35.35,0,0,1,.22.09A12.18,12.18,0,0,1,14.54,5a.29.29,0,0,1,.06.2.34.34,0,0,1-.07.21L14.08,6l-.48.63a5.47,5.47,0,0,1,.37.88l1.63.25a.28.28,0,0,1,.19.11A.34.34,0,0,1,15.86,8Zm-5.24,2.59a2.29,2.29,0,0,0,0-3.23,2.28,2.28,0,0,0-3.23,0,2.29,2.29,0,0,0,0,3.23,2.29,2.29,0,0,0,3.23,0Z" transform="translate(-2.14 -2.14)"/></svg>