<?xml version="1.0" encoding="utf-8"?>
<!-- Generator: Adobe Illustrator 21.1.0, SVG Export Plug-In . SVG Version: 6.00 Build 0)  -->
<svg version="1.1" id="Layer_1" xmlns="http://www.w3.org/2000/svg" xmlns:xlink="http://www.w3.org/1999/xlink" x="0px" y="0px"
	 viewBox="0 0 13.7 16.4" style="enable-background:new 0 0 13.7 16.4;" xml:space="preserve">
<style type="text/css">
	.st0{fill:#FF478A;}
</style>
<title>icon_rdf</title>
<g>
	<path class="st0" d="M6.9,15.2C3.1,15.2,0,12.2,0,8.4s3.1-6.9,6.9-6.9s6.9,3.1,6.9,6.9S10.6,15.2,6.9,15.2z M7,3.8
		c-1.5,0-2.5,0.6-3.3,1.9C3.6,5.8,3.7,6,3.8,6.1L5,7C5,7,5.1,7,5.1,7c0.1,0,0.2,0,0.2-0.1C5.8,6.4,6,6.2,6.1,6.1
		C6.3,6,6.6,5.9,6.9,5.9C7.5,5.9,8,6.2,8,6.6c0,0.5-0.2,0.7-0.8,0.9c-0.6,0.3-1.5,1-1.5,1.9v0.3c0,0.2,0.1,0.3,0.3,0.3h1.7
		C7.9,10.1,8,10,8,9.8c0-0.2,0.3-0.6,0.7-0.9c0.7-0.4,1.6-0.9,1.6-2.3C10.3,5,8.6,3.8,7,3.8z M8,10.9c0-0.2-0.1-0.3-0.3-0.3H6
		c-0.2,0-0.3,0.1-0.3,0.3v1.7c0,0.2,0.1,0.3,0.3,0.3h1.7c0.2,0,0.3-0.1,0.3-0.3V10.9z"/>
</g>
</svg>
