<?xml version="1.0" encoding="utf-8"?>
<!-- Generator: Adobe Illustrator 21.0.2, SVG Export Plug-In . SVG Version: 6.00 Build 0)  -->
<svg version="1.1" id="Layer_1" xmlns="http://www.w3.org/2000/svg" xmlns:xlink="http://www.w3.org/1999/xlink" x="0px" y="0px"
	 viewBox="0 0 18 18" style="enable-background:new 0 0 18 18;" xml:space="preserve">
<style type="text/css">
	.st0{fill:#FFFFFF;}
</style>
<g>
	<path class="st0" d="M17.6,11.6c0,0.9-0.3,1.8-1,2.4c-0.7,0.7-1.5,1-2.4,1H4.4c-1.1,0-2-0.4-2.8-1.2c-0.8-0.8-1.2-1.7-1.2-2.8
		c0-0.8,0.2-1.5,0.6-2.1c0.4-0.7,1-1.1,1.7-1.5c0-0.2,0-0.3,0-0.4c0-1.3,0.4-2.3,1.3-3.2c0.9-0.9,2-1.3,3.2-1.3
		c0.9,0,1.8,0.3,2.5,0.8c0.8,0.5,1.3,1.2,1.7,2.1c0.4-0.4,0.9-0.6,1.5-0.6c0.6,0,1.2,0.2,1.6,0.7c0.4,0.4,0.7,1,0.7,1.6
		c0,0.5-0.1,0.9-0.4,1.2c0.8,0.2,1.4,0.6,1.9,1.2C17.3,10.1,17.6,10.8,17.6,11.6z M11.9,9c0-0.1,0-0.2-0.1-0.2L8.6,5.7
		C8.6,5.6,8.5,5.6,8.4,5.6s-0.2,0-0.2,0.1L5.1,8.8C5,8.9,5,9,5,9c0,0.1,0,0.2,0.1,0.2c0.1,0.1,0.1,0.1,0.2,0.1h2v3.1
		c0,0.1,0,0.1,0.1,0.2s0.1,0.1,0.2,0.1h1.7c0.1,0,0.1,0,0.2-0.1s0.1-0.1,0.1-0.2V9.3h2c0.1,0,0.1,0,0.2-0.1
		C11.8,9.2,11.9,9.1,11.9,9z"/>
</g>
</svg>
