<svg id="Layer_1" data-name="Layer 1" xmlns="http://www.w3.org/2000/svg" viewBox="0 0 13.71 13.71"><defs><style>.cls-1{fill:#fff;}</style></defs><title>icon_reload</title><path class="cls-1" d="M13.31,5.84a6.77,6.77,0,0,1,0,5.32,6.77,6.77,0,0,1-3.65,3.65A6.67,6.67,0,0,1,7,15.36a6.81,6.81,0,0,1-2.92-.65,6.71,6.71,0,0,1-2.36-1.83.32.32,0,0,1-.06-.2.27.27,0,0,1,.08-.18L3,11.27a.32.32,0,0,1,.22-.08.28.28,0,0,1,.21.11,4.54,4.54,0,0,0,5.38,1.42,4.53,4.53,0,0,0,2.44-2.44,4.52,4.52,0,0,0,0-3.55A4.53,4.53,0,0,0,8.77,4.29,4.46,4.46,0,0,0,7,3.93a4.53,4.53,0,0,0-1.68.32,4.43,4.43,0,0,0-1.43.91L5.12,6.38A.51.51,0,0,1,5.24,7a.53.53,0,0,1-.53.36h-4a.55.55,0,0,1-.4-.17.55.55,0,0,1-.17-.4v-4A.53.53,0,0,1,.5,2.26a.51.51,0,0,1,.62.13L2.28,3.54a6.93,6.93,0,0,1,2.18-1.4,6.77,6.77,0,0,1,5.2,0,6.77,6.77,0,0,1,3.65,3.65Z" transform="translate(-0.14 -1.64)"/></svg>