<svg id="Layer_1" data-name="Layer 1" xmlns="http://www.w3.org/2000/svg" viewBox="0 0 29.08 31.41"><defs><style>.cls-1{fill:#fff;}</style></defs><title>icon_rdf</title><path id="icon_rdf" class="cls-1" d="M28,21.6a5.84,5.84,0,0,0-.6-.27h.14s-1.28-.57-1.39-4.68,1.22-4.81,1.22-4.81h-.19a5.74,5.74,0,1,0-8.28-4.19l-.07-.1s.34,1.49-3.16,3.66-5.08,1.09-5.08,1.09l.1.15-.3-.18a5.74,5.74,0,1,0,.89,9.54l0,.07s1.27-1,4.94.92c2.9,1.55,3.33,3.08,3.38,3.65A5.73,5.73,0,1,0,28,21.6ZM4.3,20.36l0,0,0,0Zm6.09-6.67c-.72-.66-2.49-.55-4,.46a1.19,1.19,0,0,1,.33.76,1.2,1.2,0,0,1-1.15,1.26,1.19,1.19,0,0,1-.31,0l-.09,0a.75.75,0,0,0-.84.31c-.8,1.52-.82,3.12,0,3.88a4.32,4.32,0,0,1,.1-6,4.31,4.31,0,0,1,6-.6ZM21.14,3.5a4.31,4.31,0,0,1,6-.6h0c-.72-.66-2.49-.55-4,.46a1.19,1.19,0,0,1,.33.76A1.19,1.19,0,0,1,22,5.35l-.09,0a.75.75,0,0,0-.84.31c-.8,1.52-.82,3.12,0,3.88A4.31,4.31,0,0,1,21.14,3.5Zm-4.2,17.71c-3-1.62-3.47-3-3.53-3.38a5.65,5.65,0,0,0-.07-1.47l0,0s-.25-1.32,3.21-3.46c3.09-1.92,4.5-1.54,4.76-1.44a5.66,5.66,0,0,0,1.6.76c.43.41,1.21,1.55,1.29,4.58s-.81,4.22-1.3,4.64a5.69,5.69,0,0,0-1.4.9C21.06,22.52,19.74,22.7,16.95,21.21Zm5.11,8.29,0,0,0,0Zm6.09-6.67c-.73-.66-2.49-.55-4,.46a1.19,1.19,0,0,1,.33.76A1.19,1.19,0,0,1,23,25.29l-.09,0a.75.75,0,0,0-.84.31c-.8,1.52-.82,3.12,0,3.88a4.32,4.32,0,0,1,.1-6,4.31,4.31,0,0,1,6-.6Z" transform="translate(-1.96 -1)"/></svg>