<?xml version="1.0" encoding="utf-8"?>
<!-- Generator: Adobe Illustrator 21.1.0, SVG Export Plug-In . SVG Version: 6.00 Build 0)  -->
<svg version="1.1" id="Layer_1" xmlns="http://www.w3.org/2000/svg" xmlns:xlink="http://www.w3.org/1999/xlink" x="0px" y="0px"
	 viewBox="0 0 74 30.4" style="enable-background:new 0 0 74 30.4;" xml:space="preserve">
<style type="text/css">
	.st0{fill:none;}
	.st1{fill:#FFBD52;}
	.st2{fill:none;stroke:#FFBD52;stroke-width:2;stroke-miterlimit:10;}
</style>
<title>dbcls_logo</title>
<g>
	<g>
		<rect x="0" y="23.3" transform="matrix(0.8404 -0.542 0.542 0.8404 -13.2106 4.7841)" class="st0" width="3" height="3"/>
		<ellipse transform="matrix(0.8404 -0.542 0.542 0.8404 -13.2106 4.7841)" class="st1" cx="1.5" cy="24.8" rx="1.5" ry="1.5"/>
	</g>
	<g>
		<rect x="4.5" y="20.4" transform="matrix(0.8404 -0.542 0.542 0.8404 -10.9126 6.7655)" class="st0" width="3" height="3"/>
		<ellipse transform="matrix(0.8404 -0.542 0.542 0.8404 -10.9126 6.7655)" class="st1" cx="6" cy="21.9" rx="1.5" ry="1.5"/>
	</g>
	<g>
		<rect x="9" y="17.5" transform="matrix(0.8404 -0.542 0.542 0.8404 -8.6146 8.7469)" class="st0" width="3" height="3"/>
		<ellipse transform="matrix(0.8404 -0.542 0.542 0.8404 -8.6146 8.7469)" class="st1" cx="10.5" cy="19" rx="1.5" ry="1.5"/>
	</g>
	<g>
		<rect x="13.6" y="14.7" transform="matrix(0.982 -0.189 0.189 0.982 -2.7985 3.1503)" class="st0" width="3" height="3"/>
		<ellipse transform="matrix(0.982 -0.189 0.189 0.982 -2.8328 3.1655)" class="st1" cx="15.2" cy="16.4" rx="1.5" ry="1.5"/>
	</g>
	<g>
		<rect x="18.9" y="13.7" transform="matrix(0.982 -0.189 0.189 0.982 -2.5116 4.1285)" class="st0" width="3" height="3"/>
		<ellipse transform="matrix(0.982 -0.189 0.189 0.982 -2.4171 4.1195)" class="st1" cx="20.4" cy="14.7" rx="1.5" ry="1.5"/>
	</g>
	<g>
		<rect x="24.2" y="12.7" transform="matrix(0.982 -0.189 0.189 0.982 -2.2248 5.1068)" class="st0" width="3" height="3"/>
		<ellipse transform="matrix(0.982 -0.189 0.189 0.982 -2.0938 5.1062)" class="st1" cx="25.7" cy="13.5" rx="1.5" ry="1.5"/>
	</g>
	<g>
		<rect x="29.4" y="11.7" transform="matrix(0.982 -0.189 0.189 0.982 -1.938 6.0851)" class="st0" width="3" height="3"/>
		<ellipse transform="matrix(0.982 -0.189 0.189 0.982 -1.8789 6.0795)" class="st1" cx="30.9" cy="12.9" rx="1.5" ry="1.5"/>
	</g>
	<g>
		<rect x="34.7" y="11.1" transform="matrix(0.1983 -0.9801 0.9801 0.1983 16.6575 45.6104)" class="st0" width="3" height="3"/>
		<ellipse transform="matrix(0.1983 -0.9801 0.9801 0.1983 16.6575 45.6104)" class="st1" cx="36.2" cy="12.6" rx="1.5" ry="1.5"/>
	</g>
	<g>
		<rect x="40" y="12.2" transform="matrix(0.1983 -0.9801 0.9801 0.1983 19.8331 51.623)" class="st0" width="3" height="3"/>
		<ellipse transform="matrix(0.1983 -0.9801 0.9801 0.1983 20.5348 51.3558)" class="st1" cx="41.7" cy="13.1" rx="1.5" ry="1.5"/>
	</g>
	<g>
		<rect x="45.2" y="13.3" transform="matrix(0.1983 -0.9801 0.9801 0.1983 23.0087 57.6356)" class="st0" width="3" height="3"/>
		<ellipse transform="matrix(0.1983 -0.9801 0.9801 0.1983 23.7215 57.257)" class="st1" cx="46.9" cy="14.1" rx="1.5" ry="1.5"/>
	</g>
	<g>
		<rect x="50.5" y="14.3" transform="matrix(0.1983 -0.9801 0.9801 0.1983 26.1843 63.6481)" class="st0" width="3" height="3"/>
		<ellipse transform="matrix(0.1983 -0.9801 0.9801 0.1983 26.1843 63.6481)" class="st1" cx="52" cy="15.8" rx="1.5" ry="1.5"/>
	</g>
	<g>
		<rect x="55.3" y="16.4" transform="matrix(0.5659 -0.8244 0.8244 0.5659 9.9163 54.6255)" class="st0" width="3" height="3"/>
		<ellipse transform="matrix(0.5659 -0.8244 0.8244 0.5659 9.9163 54.6255)" class="st1" cx="56.8" cy="17.9" rx="1.5" ry="1.5"/>
	</g>
	<g>
		<rect x="59.8" y="19.4" transform="matrix(0.5659 -0.8244 0.8244 0.5659 9.3325 59.5947)" class="st0" width="3" height="3"/>
		<ellipse transform="matrix(0.5659 -0.8244 0.8244 0.5659 9.7529 59.7682)" class="st1" cx="61.6" cy="20.6" rx="1.5" ry="1.5"/>
	</g>
	<g>
		<rect x="64.2" y="22.5" transform="matrix(0.5659 -0.8244 0.8244 0.5659 8.7487 64.5639)" class="st0" width="3" height="3"/>
		<ellipse transform="matrix(0.5659 -0.8244 0.8244 0.5659 9.2722 64.6832)" class="st1" cx="66.1" cy="23.5" rx="1.5" ry="1.5"/>
	</g>
	<g>
		<rect x="68.6" y="25.5" transform="matrix(0.5659 -0.8244 0.8244 0.5659 8.1649 69.5332)" class="st0" width="3" height="3"/>
	</g>
</g>
<g>
	<path class="st1" d="M9.9,4l2.3-0.6c0.9-0.2,2.2-0.5,3.4,0.4c0.7,0.5,1.1,1.2,1.4,2.1c0.6,2-0.1,3.9-2.6,4.6l-2.4,0.7L9.9,4z
		 M13,9.5l1-0.3c1.5-0.4,1.9-1.6,1.5-2.9c-0.2-0.6-0.5-1.1-0.9-1.5c-0.4-0.3-1-0.5-1.8-0.2l-1,0.3L13,9.5z"/>
	<path class="st1" d="M17.7,3.9l1.2-0.3l0.1,0.7c0.1-0.5,0.5-1,1.3-1.2l0.3,1.3l-0.1,0c-0.9,0.2-1.3,0.7-1.1,1.6L20.1,9l-1.3,0.3
		L17.7,3.9z"/>
	<path class="st1" d="M21.4,5.9c-0.2-1.4,0.6-3,2.5-3.3c1.9-0.3,3.1,1.1,3.3,2.5c0.2,1.4-0.6,3-2.5,3.3C22.9,8.7,21.7,7.3,21.4,5.9
		L21.4,5.9z M22.7,5.7c0.1,1,1,1.5,1.9,1.4C25.5,7,26.1,6.2,26,5.3c-0.1-1-1-1.6-1.8-1.4C23.2,4,22.6,4.8,22.7,5.7L22.7,5.7z"/>
	<path class="st1" d="M28.2,2.2l1.2-0.1l0,0.8c0.4-0.6,1-1,1.9-1.1c1.9-0.1,2.8,1.5,2.9,2.8c0.1,1.6-0.9,2.9-2.5,3
		c-1.1,0.1-1.7-0.4-1.9-0.8l0,0.7L30,9.6l-1.3,0.1L28.2,2.2z M33,4.7c0-0.8-0.7-1.7-1.8-1.6c-0.5,0-0.9,0.2-1.2,0.6
		c-0.3,0.3-0.4,0.8-0.4,1.2c0,0.5,0.2,0.9,0.6,1.2c0.3,0.3,0.7,0.4,1.2,0.4C32.4,6.4,33,5.6,33,4.7L33,4.7z"/>
	<path class="st1" d="M38.7,0L40,0.1l-0.1,1.8l0,0.8c0.3-0.6,1-0.8,1.7-0.7c0.8,0,1.4,0.4,1.7,0.9c0.3,0.5,0.4,1.2,0.3,1.9l-0.2,3
		L42,7.6l0.2-3c0-0.4,0-0.8-0.2-1.1c-0.2-0.3-0.5-0.5-0.9-0.5c-0.5,0-0.8,0.2-1,0.4c-0.2,0.3-0.3,0.6-0.3,0.9l-0.2,3.1l-1.3-0.1
		L38.7,0z"/>
	<path class="st1" d="M45.8,5.6c-0.1,0.9,0.6,1.5,1.4,1.6c0.6,0.1,1.1-0.1,1.4-0.6l1.3,0.2c-0.3,0.6-0.8,1-1.3,1.2
		c-0.5,0.3-1.1,0.3-1.6,0.3c-1.7-0.2-2.7-1.8-2.5-3.3c0.2-1.5,1.6-2.7,3.2-2.5c0.8,0.1,1.5,0.5,1.9,1.1c0.6,0.8,0.7,1.7,0.5,2.6
		L45.8,5.6z M49,5.1c0-0.5-0.4-1.3-1.4-1.4c-1-0.1-1.6,0.5-1.7,1L49,5.1z"/>
	<path class="st1" d="M51.8,3.5L53,3.7l-0.1,0.7c0.3-0.4,0.8-0.7,1.7-0.6l-0.3,1.3l-0.1,0c-0.9-0.2-1.4,0.2-1.6,1.1L52,9.1l-1.3-0.3
		L51.8,3.5z"/>
	<path class="st1" d="M55.7,7.6c-0.2,0.9,0.5,1.5,1.2,1.7c0.6,0.2,1.1,0,1.5-0.4l1.3,0.3c-0.4,0.5-0.9,0.9-1.4,1
		c-0.5,0.2-1.1,0.2-1.6,0.1c-1.6-0.4-2.4-2.1-2.1-3.5c0.4-1.5,1.9-2.5,3.5-2.1c0.8,0.2,1.4,0.7,1.8,1.3C60.3,7,60.3,7.9,60,8.8
		L55.7,7.6z M59,7.5c0.1-0.5-0.3-1.4-1.2-1.6c-0.9-0.2-1.6,0.3-1.8,0.8L59,7.5z"/>
</g>
<polyline class="st2" points="65.1,29.4 72.6,27.4 70.2,19.5 "/>
</svg>
