<svg id="Layer_1" data-name="Layer 1" xmlns="http://www.w3.org/2000/svg" viewBox="0 0 24 28"><defs><style>.cls-1{fill:#fff;}</style></defs><title>icon_csv</title><g id="icon_csv"><path class="cls-1" d="M27.45,8.82A3.67,3.67,0,0,1,28.2,10a3.62,3.62,0,0,1,.31,1.38v18a1.49,1.49,0,0,1-1.5,1.5H6a1.49,1.49,0,0,1-1.5-1.5v-25A1.49,1.49,0,0,1,6,2.88H20a3.63,3.63,0,0,1,1.38.31,3.66,3.66,0,0,1,1.19.75Zm-.94,20.06v-16H20a1.49,1.49,0,0,1-1.5-1.5V4.88h-12v24ZM20.51,5v5.88h5.88a1.72,1.72,0,0,0-.34-.64L21.15,5.35A1.73,1.73,0,0,0,20.51,5Z" transform="translate(-4.51 -2.88)"/><rect class="cls-1" x="1.49" y="6.12" width="13" height="1"/><rect class="cls-1" x="1.49" y="11.12" width="21.5" height="1"/><rect class="cls-1" x="1.49" y="16.12" width="21.5" height="1"/><rect class="cls-1" x="1.49" y="21.12" width="21.5" height="1"/><rect class="cls-1" x="7.99" y="1.62" width="1" height="26"/><rect class="cls-1" x="14.99" y="1.62" width="1" height="26"/></g></svg>