<svg id="Layer_1" data-name="Layer 1" xmlns="http://www.w3.org/2000/svg" viewBox="0 0 13.71 13.71"><defs><style>.cls-1{fill:#ff478a;}</style></defs><title>icon_reload_mark</title><path class="cls-1" d="M15.49,10.71a.16.16,0,0,1,0,.06,6.94,6.94,0,0,1-2.39,3.88,6.55,6.55,0,0,1-4.27,1.49,6.71,6.71,0,0,1-2.52-.49,6.82,6.82,0,0,1-2.17-1.4L3,15.4A.57.57,0,0,1,2,15V11a.58.58,0,0,1,.57-.57h4a.57.57,0,0,1,.4,1L5.75,12.63a4.6,4.6,0,0,0,1.44.91,4.44,4.44,0,0,0,1.67.32,4.55,4.55,0,0,0,3.89-2.18,10.9,10.9,0,0,0,.47-1,.27.27,0,0,1,.27-.21h1.71a.29.29,0,0,1,.29.29Zm.22-7.14v4a.58.58,0,0,1-.57.57h-4a.57.57,0,0,1-.4-1L12,5.94A4.43,4.43,0,0,0,8.86,4.71,4.55,4.55,0,0,0,5,6.89a10.43,10.43,0,0,0-.47,1,.27.27,0,0,1-.27.21H2.45a.27.27,0,0,1-.2-.08.28.28,0,0,1-.09-.2V7.79A7,7,0,0,1,4.57,3.92,6.6,6.6,0,0,1,8.86,2.43a6.73,6.73,0,0,1,2.54.5,6.9,6.9,0,0,1,2.19,1.4l1.16-1.15a.57.57,0,0,1,1,.4Z" transform="translate(-2 -2.43)"/></svg>