<?xml version="1.0" encoding="utf-8"?>
<!-- Generator: Adobe Illustrator 21.1.0, SVG Export Plug-In . SVG Version: 6.00 Build 0)  -->
<svg version="1.1" id="Layer_1" xmlns="http://www.w3.org/2000/svg" xmlns:xlink="http://www.w3.org/1999/xlink" x="0px" y="0px"
	 viewBox="0 0 24 28" style="enable-background:new 0 0 24 28;" xml:space="preserve">
<style type="text/css">
	.st0{enable-background:new    ;}
	.st1{fill:#FFFFFF;}
	.st2{fill:none;stroke:#FFFFFF;stroke-width:2;stroke-miterlimit:10;}
	.st3{fill:none;}
</style>
<title>icon_festa</title>
<g class="st0">
	<path class="st1" d="M24,8.5v18c0,0.8-0.7,1.5-1.5,1.5h-21C0.7,28,0,27.3,0,26.5v-25C0,0.7,0.7,0,1.5,0h14c0.8,0,2,0.5,2.6,1.1
		l4.9,4.9C23.5,6.5,24,7.7,24,8.5z M22,10h-6.5C14.7,10,14,9.3,14,8.5V2H2v24h20V10z M16,8h5.9c-0.1-0.3-0.2-0.5-0.3-0.6l-4.9-4.9
		c-0.1-0.1-0.4-0.2-0.6-0.3V8z"/>
</g>
<polyline class="st2" points="9.6,11.2 14.3,17.3 9.6,23.2 "/>
<rect id="_x3C_スライス_x3E__6_" x="-0.9" y="-0.1" class="st3" width="25.3" height="28.7"/>
</svg>
