<?xml version="1.0" encoding="utf-8"?>
<!-- Generator: Adobe Illustrator 21.1.0, SVG Export Plug-In . SVG Version: 6.00 Build 0)  -->
<svg version="1.1" id="Layer_1" xmlns="http://www.w3.org/2000/svg" xmlns:xlink="http://www.w3.org/1999/xlink" x="0px" y="0px"
	 viewBox="0 0 13.7 13.7" style="enable-background:new 0 0 13.7 13.7;" xml:space="preserve">
<style type="text/css">
	.st0{enable-background:new    ;}
	.st1{fill:#FFFFFF;}
</style>
<title>icon_settings</title>
<g class="st0">
	<path class="st1" d="M10.4,7.3l-4.9,4.9c-0.1,0.1-0.2,0.2-0.4,0.2c-0.3,0-0.6-0.3-0.6-0.6V9.2h-4C0.3,9.2,0,8.9,0,8.6V5.2
		c0-0.3,0.3-0.6,0.6-0.6h4V2c0-0.3,0.3-0.6,0.6-0.6c0.2,0,0.3,0.1,0.4,0.2l4.9,4.9c0.1,0.1,0.2,0.2,0.2,0.4S10.5,7.2,10.4,7.3z
		 M13.7,10c0,1.4-1.2,2.6-2.6,2.6H8.3c-0.2,0-0.3-0.1-0.3-0.3c0-0.2-0.1-0.9,0.3-0.9h2.9c0.8,0,1.4-0.6,1.4-1.4V3.7
		c0-0.8-0.6-1.4-1.4-1.4H8.6C8.4,2.3,8,2.4,8,2c0-0.2-0.1-0.9,0.3-0.9h2.9c1.4,0,2.6,1.2,2.6,2.6V10z"/>
</g>
</svg>
