<?xml version="1.0" encoding="utf-8"?>
<!-- Generator: Adobe Illustrator 21.1.0, SVG Export Plug-In . SVG Version: 6.00 Build 0)  -->
<svg version="1.1" id="Layer_1" xmlns="http://www.w3.org/2000/svg" xmlns:xlink="http://www.w3.org/1999/xlink" x="0px" y="0px"
	 viewBox="0 0 14.4 16.4" style="enable-background:new 0 0 14.4 16.4;" xml:space="preserve">
<style type="text/css">
	.st0{enable-background:new    ;}
	.st1{fill:#FF478A;}
</style>
<title>icon_rdf</title>
<g class="st0">
	<path class="st1" d="M5.2,16.2c-0.2,0-0.3-0.1-0.4-0.2l-4.6-4.6c-0.1-0.1-0.2-0.2-0.2-0.4c0-0.3,0.3-0.6,0.6-0.6h2.3v-2
		c0-2.9,0.5-6.6,3.6-7.8c0.9-0.4,2-0.5,3-0.5c1.2,0,2.9,0.6,4,1.1c0.2,0.1,0.5,0.2,0.7,0.3c0.1,0.1,0.2,0.1,0.2,0.2
		c0,0.2-0.1,0.3-0.3,0.3c-0.1,0-0.3,0-0.4,0c-0.4,0-0.7,0-1.1,0c-4.3,0-5,2.5-5,6.4v2h2.3c0.3,0,0.6,0.3,0.6,0.6
		c0,0.2-0.1,0.3-0.2,0.4l-4.6,4.6C5.5,16.2,5.4,16.2,5.2,16.2z"/>
</g>
</svg>
