<svg id="Layer_1" data-name="Layer 1" xmlns="http://www.w3.org/2000/svg" viewBox="0 0 427.67 204.79"><defs><style>.cls-1,.cls-2{fill:#bdbdbd;}.cls-1,.cls-6{opacity:0.5;}.cls-3{fill:#fff;}.cls-4,.cls-8,.cls-9{fill:none;stroke-miterlimit:10;}.cls-4{stroke:#fff;}.cls-5{fill:#7d5c51;}.cls-6,.cls-7{fill:#ff789c;}.cls-8,.cls-9{stroke:#7d5c51;}.cls-8{stroke-width:2px;}.cls-10{fill:#d8cecb;}</style></defs><title>top_img</title><circle class="cls-1" cx="45" cy="102.17" r="45"/><path class="cls-2" d="M49,158a42,42,0,1,1,42-42A42,42,0,0,1,49,158Z" transform="translate(-4 -13.83)"/><path class="cls-3" d="M32.7,133.49a4.4,4.4,0,0,1-4.21,2.87,4.61,4.61,0,1,1,0-9.21,4.51,4.51,0,0,1,4.23,2.91h-1.5a3.14,3.14,0,0,0-2.75-1.67,3.36,3.36,0,0,0,0,6.72,3.19,3.19,0,0,0,2.73-1.62Z" transform="translate(-4 -13.83)"/><path class="cls-3" d="M34.92,133.56a1.52,1.52,0,0,0,1.5,1.6,1.46,1.46,0,0,0,1.48-1.42c0-1-.84-1.21-2-1.63-.7-.23-2.24-.74-2.24-2.41a2.61,2.61,0,0,1,2.79-2.55,2.51,2.51,0,0,1,2.67,2.45H37.75a1.3,1.3,0,0,0-1.33-1.25,1.27,1.27,0,0,0-1.34,1.25c0,.86.66,1.08,2.09,1.61,1.1.47,2.13,1,2.13,2.47a2.63,2.63,0,0,1-2.87,2.69,2.68,2.68,0,0,1-2.92-2.79Z" transform="translate(-4 -13.83)"/><path class="cls-3" d="M39.83,127.31h1.46l2.57,7.15,2.58-7.15H47.9l-3.35,8.88h-1.4Z" transform="translate(-4 -13.83)"/><path class="cls-3" d="M48.92,137.81h-.67L53,126.73h.67Z" transform="translate(-4 -13.83)"/><path class="cls-3" d="M56,128.56h-2v-1.25h5.49v1.25h-2v7.63H56Z" transform="translate(-4 -13.83)"/><path class="cls-3" d="M61.32,133.56a1.52,1.52,0,0,0,1.5,1.6,1.46,1.46,0,0,0,1.48-1.42c0-1-.84-1.21-2-1.63-.7-.23-2.24-.74-2.24-2.41a2.61,2.61,0,0,1,2.79-2.55,2.51,2.51,0,0,1,2.67,2.45H64.15a1.3,1.3,0,0,0-1.33-1.25,1.27,1.27,0,0,0-1.34,1.25c0,.86.66,1.08,2.09,1.61,1.1.47,2.13,1,2.13,2.47a2.63,2.63,0,0,1-2.87,2.69,2.68,2.68,0,0,1-2.92-2.79Z" transform="translate(-4 -13.83)"/><path class="cls-3" d="M66.23,127.31h1.46l2.57,7.15,2.58-7.15H74.3L71,136.19h-1.4Z" transform="translate(-4 -13.83)"/><path class="cls-3" d="M60,98.82A3.66,3.66,0,0,1,60.7,100a3.61,3.61,0,0,1,.31,1.38v18a1.49,1.49,0,0,1-1.5,1.5h-21a1.49,1.49,0,0,1-1.5-1.5v-25a1.49,1.49,0,0,1,1.5-1.5h14a4.16,4.16,0,0,1,2.56,1.06ZM59,118.88v-16h-6.5a1.49,1.49,0,0,1-1.5-1.5v-6.5H39v24ZM53,95v5.87h5.88a1.71,1.71,0,0,0-.34-.64l-4.89-4.89A1.71,1.71,0,0,0,53,95Z" transform="translate(-4 -13.83)"/><line class="cls-4" x1="34.5" y1="85.67" x2="47.5" y2="85.67"/><line class="cls-4" x1="34.5" y1="90.67" x2="56" y2="90.67"/><line class="cls-4" x1="34.5" y1="95.67" x2="56" y2="95.67"/><line class="cls-4" x1="34.5" y1="100.67" x2="56" y2="100.67"/><line class="cls-4" x1="41.5" y1="80.67" x2="41.5" y2="106.67"/><line class="cls-4" x1="48.5" y1="80.67" x2="48.5" y2="106.67"/><path class="cls-5" d="M18.61,71a1.36,1.36,0,0,1,.29.28.62.62,0,0,1-.11.7c.06.34.35,2,.42,2.32.16.8.33,1.31.37,1.7a.59.59,0,0,1-.28.56.51.51,0,0,1-.74-.06c-.2-.28-.74-3.55-.87-4.21-.38-.23-2.86-1.78-3.28-2.06s-.92-.42-1.14-.74-.07-.59.26-.83c.12-.09.34-.06.63.11s.49.3.79.49l2.59,1.66c-.19-1-.62-2.66-.91-3.51a.58.58,0,0,1,.26-.62c.28-.2.65.07.75.21S18.46,70.08,18.61,71Z" transform="translate(-4 -13.83)"/><path class="cls-5" d="M22.42,69.84A2.08,2.08,0,0,1,19.76,69a3.11,3.11,0,0,1-.31-1.66,4.73,4.73,0,0,1,2-3.3c1.13-.62,2.72-.58,3.35.57C25.71,66.31,24.37,68.8,22.42,69.84Zm-.27-4.91a3,3,0,0,0-1.22,3.65c.27.49.76.49,1.3.2a3.73,3.73,0,0,0,1.23-1.32,2.47,2.47,0,0,0,.29-2.22A1.22,1.22,0,0,0,22.16,64.93Z" transform="translate(-4 -13.83)"/><path class="cls-5" d="M31.06,63.56c.23.59.46,1,.7,1.64a.7.7,0,0,1-.41.84c-.56.22-.71-.45-.85-.76s-.36-1.08-.54-1.66c0,1.14-.53,3-1.5,3.41s-1.78-1.2-2.1-1.72A20.18,20.18,0,0,1,25.26,63c-.13-.34-.19-.89.23-1.06a.76.76,0,0,1,1,.51,11.13,11.13,0,0,0,1,2.36c.09.16.58,1.1.83,1s1-3.26,1-3.76a2.3,2.3,0,0,0-.13-.54.54.54,0,0,1,.37-.66.62.62,0,0,1,.8.35C30.42,61.61,30.81,62.92,31.06,63.56Z" transform="translate(-4 -13.83)"/><path class="cls-5" d="M35.36,58.9c-.71-.1-1.15.84-1.26,1.19a7.66,7.66,0,0,0-.19,1.45,8.24,8.24,0,0,0,.23,2.07c.12.39.57,1.49,0,1.66s-.83-.11-1-.73c-.11-.39-.55-1.79-.75-2.45-.15-.47-.49-.92-.6-1.33a.59.59,0,1,1,1.1-.42,4.12,4.12,0,0,0,.19.45c.06-1.14.34-2.46,1.44-2.77.35-.1,1.15-.24,1.31.35A.44.44,0,0,1,35.36,58.9Z" transform="translate(-4 -13.83)"/><path class="cls-5" d="M47,63.19c-.64.06-1.11-1.18-1.3-1.61a4.79,4.79,0,0,1-2.88,1.76A2.24,2.24,0,0,1,40,61.19a3.73,3.73,0,0,1,3.3-3.75,7,7,0,0,1,1.37,0c-.09-.65-.08-1.45-.11-2.1s.09-2.42,1-2.5c.63-.06.7.54.55.91A10.69,10.69,0,0,0,46.17,59a.47.47,0,0,1,.37-.19c.45,0,.39.81.35,1a4.82,4.82,0,0,1-.36.8,6.56,6.56,0,0,0,.35,1,.59.59,0,0,1,.36-.34.48.48,0,0,1,.54.43C47.81,61.82,47.66,63.13,47,63.19Zm-2.12-4.38a1.59,1.59,0,0,0-1-.34,2.68,2.68,0,0,0-2.61,2.67c.11,1.12,1.3,1.52,2.34.86a6.41,6.41,0,0,0,1.73-1.62Z" transform="translate(-4 -13.83)"/><path class="cls-5" d="M53.64,63.85c-.52,0-.45-.77-.51-1.07s-.2-.7-.45-.63a5.91,5.91,0,0,1-3.15.71c-.41,0-1.49-.59-1.46-1.25,0-1,2.22-1.41,3-1.38A4.46,4.46,0,0,1,53,61a15.81,15.81,0,0,0-.71-2.75,17.12,17.12,0,0,1-2.13,1.11.56.56,0,0,1-.59-.54c0-.37.44-.6.72-.8a10.23,10.23,0,0,1,2.17-1c.63,0,.92.62,1.09,1.29s.28,1.57.44,2.41c0,.24.36,2.43.35,2.69C54.34,63.82,53.91,63.86,53.64,63.85Zm-4.35-2.27a1.4,1.4,0,0,0,1.05.36,7.84,7.84,0,0,0,2-.5,8.92,8.92,0,0,0-1.49-.21A2.69,2.69,0,0,0,49.29,61.58Z" transform="translate(-4 -13.83)"/><path class="cls-5" d="M60.55,59.15c-.71,0-1.14.09-1.95.1A15.31,15.31,0,0,0,58.4,61c-.07.92-.09,2.28-.21,3-.07.44-.34.52-.79.45-.19,0-.35-.66-.3-1.38s.11-1.39.14-1.75c0-.68.11-1.33.21-2.06a7.82,7.82,0,0,1-1.79.25c-.28,0-.4-.47-.37-.64.07-.41.32-.47.61-.5.57-.06.91-.16,1.77-.24.17-1.1,1-3.62,1.44-3.55.21,0,.74.22.67.65a1.82,1.82,0,0,1-.22.6,11.06,11.06,0,0,0-.75,2.33,5.15,5.15,0,0,1,2,0s.29.38.27.51A.51.51,0,0,1,60.55,59.15Z" transform="translate(-4 -13.83)"/><path class="cls-5" d="M65.45,66.28c-.51-.14-.26-.85-.25-1.16s0-.73-.3-.72a5.91,5.91,0,0,1-3.23,0c-.39-.11-1.32-.91-1.14-1.55.28-1,2.49-.86,3.24-.65a4.46,4.46,0,0,1,1.74,1.19,15.75,15.75,0,0,0-.06-2.84,17,17,0,0,1-2.33.59.56.56,0,0,1-.46-.66c.1-.36.57-.48.89-.61a10.25,10.25,0,0,1,2.35-.48c.61.17.75.82.76,1.51s-.09,1.6-.12,2.44c0,.25-.2,2.45-.27,2.7C66.14,66.42,65.71,66.36,65.45,66.28Zm-3.72-3.21a1.4,1.4,0,0,0,.94.59,7.84,7.84,0,0,0,2,0,9,9,0,0,0-1.4-.55A2.69,2.69,0,0,0,61.73,63.08Z" transform="translate(-4 -13.83)"/><circle class="cls-6" cx="359.96" cy="59.89" r="42.72"/><path class="cls-7" d="M364,113.45a39.72,39.72,0,1,1,39.72-39.72A39.77,39.77,0,0,1,364,113.45Z" transform="translate(-4 -13.83)"/><path class="cls-3" d="M349.49,93.76V84.89h1.41v3.74h3.83V84.89h1.42v8.88h-1.42V89.88h-3.83v3.89Z" transform="translate(-4 -13.83)"/><path class="cls-3" d="M359.15,86.14h-2V84.89h5.49v1.25h-2v7.63h-1.42Z" transform="translate(-4 -13.83)"/><path class="cls-3" d="M363.56,93.76V84.89h1.94l2.76,6.87L371,84.89h1.93v8.88H371.6l0-7.48-2.94,7.48h-.92l-2.94-7.48,0,7.48Z" transform="translate(-4 -13.83)"/><path class="cls-3" d="M374.67,84.89h1.41v7.63h3.13v1.25h-4.54Z" transform="translate(-4 -13.83)"/><path class="cls-3" d="M375,57.09a3.66,3.66,0,0,1,.75,1.19,3.61,3.61,0,0,1,.31,1.38v18a1.49,1.49,0,0,1-1.5,1.5h-21a1.49,1.49,0,0,1-1.5-1.5v-25a1.49,1.49,0,0,1,1.5-1.5h14a4.16,4.16,0,0,1,2.56,1.06Zm-.94,20.06v-16h-6.5a1.49,1.49,0,0,1-1.5-1.5v-6.5h-12v24Zm-14.5-14a.46.46,0,0,1,.33-.2.52.52,0,0,1,.38.1l.8.59a.46.46,0,0,1,.2.33.52.52,0,0,1-.1.38l-2.84,3.8,2.84,3.8a.52.52,0,0,1,.1.38.46.46,0,0,1-.2.33l-.8.59a.52.52,0,0,1-.37.1.45.45,0,0,1-.33-.2L356,68.45a.46.46,0,0,1,0-.59Zm2.84,11.91a.45.45,0,0,1-.32-.2.5.5,0,0,1-.09-.37l2.16-13a.45.45,0,0,1,.2-.32.51.51,0,0,1,.38-.09l1,.16a.46.46,0,0,1,.32.2.51.51,0,0,1,.09.38l-2.16,13a.46.46,0,0,1-.2.32.51.51,0,0,1-.37.09Zm9.69-7.2a.46.46,0,0,1,0,.59l-3.53,4.7a.46.46,0,0,1-.33.2.52.52,0,0,1-.37-.1l-.8-.59a.45.45,0,0,1-.2-.33A.51.51,0,0,1,367,72l2.84-3.8L367,64.36a.51.51,0,0,1-.1-.37.45.45,0,0,1,.2-.33l.8-.59a.52.52,0,0,1,.38-.1.46.46,0,0,1,.33.2Zm-4-14.58v5.88h5.88a1.71,1.71,0,0,0-.34-.64l-4.89-4.89A1.71,1.71,0,0,0,368.06,53.28Z" transform="translate(-4 -13.83)"/><line class="cls-8" x1="299.11" y1="109.71" x2="310.22" y2="116.12"/><polyline class="cls-8" points="309.53 110.53 311.17 116.67 305.03 118.32"/><line class="cls-8" x1="299.11" y1="97.62" x2="310.22" y2="91.21"/><polyline class="cls-8" points="305.03 89.01 311.17 90.66 309.53 96.81"/><line class="cls-8" x1="102.17" y1="102.17" x2="115" y2="102.17"/><polyline class="cls-8" points="111.6 97.67 116.1 102.17 111.6 106.67"/><circle class="cls-6" cx="359.96" cy="148.89" r="42.72"/><path class="cls-7" d="M364,202.45a39.72,39.72,0,1,1,39.72-39.72A39.77,39.77,0,0,1,364,202.45Z" transform="translate(-4 -13.83)"/><path class="cls-5" d="M345.24,214.23a7,7,0,0,1-2.41,0c-.33-.13-.47-.24-.32-.63s1.14-.26,1.51-.27a7,7,0,0,0,.83-.06c.88-.13,1.94-.45,2.08-.8,0-.11-.16-.13-.4-.21s-.79-.24-1.23-.4c-.86-.31-1.69-.9-1.31-1.87.3-.75,2.92-1.37,3.67-1.33a3.08,3.08,0,0,1,1.06.13c.35.14.41.71.36.85a.8.8,0,0,1-.41.45c-.14.06-.38.11-.47-.11a.51.51,0,0,0-.48-.29,5.2,5.2,0,0,0-2.65.75c-.12.29.71.49.87.54.75.22,2.46.85,2.07,1.83S345.87,214.14,345.24,214.23Z" transform="translate(-4 -13.83)"/><path class="cls-5" d="M350.95,216.54a2.49,2.49,0,0,1-1.89-2.82,3,3,0,0,1,1.41-1.9,4.07,4.07,0,0,1,2.95-.72c.54.14,1.59.68,1.36,1.59-.39,1.53-2.21,1.63-3.51,1.29l-.93-.32a1.38,1.38,0,0,0,.82,1.86,3.85,3.85,0,0,0,2.64-.15.76.76,0,0,1,.38-.07.69.69,0,0,1,.42.73C354.44,216.59,352.12,216.84,350.95,216.54Zm2.4-4.37a4.08,4.08,0,0,0-2.4.66,4.08,4.08,0,0,0,1.42.31c.68,0,1.26-.25,1.36-.65C353.77,212.35,353.66,212.22,353.35,212.17Z" transform="translate(-4 -13.83)"/><path class="cls-5" d="M365.26,218.62a.69.69,0,0,1-.63-.61,9,9,0,0,0-.54-2.12c-.2-.53-.56-1.34-.92-1.37-.18,0-.47.25-.66.58s-.34.91-.54,1.3c-.32.65-.57,1.31-.64,1.41s-.29.28-.59.25-.64-.23-.66-.61-.13-1.24-.17-1.73-.19-2-.56-2.24c-.13,0-.56.6-.73.92a7.26,7.26,0,0,0-.65,1.44c-.15.58-.2.89-.32,1.42a.75.75,0,0,1-.63.58c-.42,0-.58-.21-.59-.74.15-1.16.18-3.93.25-4.76,0-.15.25-.73.64-.7.63,0,.53.55.42,1.25,0,.16-.06,1.2-.09,1.59l.36-.81c.22-.53.89-1.54,1.5-1.49,1,.08,1.45,2.08,1.54,4a20.06,20.06,0,0,1,.84-2,1.7,1.7,0,0,1,1.6-.81c1,.08,1.79,2.11,2,2.86a6.07,6.07,0,0,1,.32,1.86A.5.5,0,0,1,365.26,218.62Z" transform="translate(-4 -13.83)"/><path class="cls-5" d="M373.06,218.54c-.52.05-.55-.7-.66-1s-.29-.66-.54-.56a5.91,5.91,0,0,1-3,1.15c-.4,0-1.56-.37-1.62-1-.1-1,2-1.71,2.77-1.79a4.44,4.44,0,0,1,2.05.47,15.67,15.67,0,0,0-1.09-2.62,17,17,0,0,1-2,1.4.56.56,0,0,1-.66-.45c0-.37.36-.65.6-.89a10.25,10.25,0,0,1,2-1.3c.63-.06,1,.49,1.26,1.13s.5,1.52.78,2.32c.08.23.7,2.36.73,2.61C373.76,218.41,373.33,218.51,373.06,218.54Zm-4.62-1.63a1.39,1.39,0,0,0,1.09.21,7.81,7.81,0,0,0,1.88-.78,8.93,8.93,0,0,0-1.51,0A2.67,2.67,0,0,0,368.43,216.91Z" transform="translate(-4 -13.83)"/><path class="cls-5" d="M374.14,211.73a.72.72,0,0,1,.48-.81c.45-.11.84.47.87.6.07.29.33,1.91.55,3.11l0-1a2.78,2.78,0,0,1,1.82-2.72c.87-.21,1.54,1,1.86,1.55a17.63,17.63,0,0,1,1.07,2.47c.14.37.17.81-.24.91a.64.64,0,0,1-.78-.33c-.4-.86-.34-1.25-.78-2.11-.24-.47-.81-1.33-1-1.25a1.3,1.3,0,0,0-.7.68,10.51,10.51,0,0,0-.65,4c0,.47-.15.72-.37.77-.41.1-.68,0-.81-.51s-.61-2.61-.74-3.15C374.59,213.16,374.32,212.45,374.14,211.73Z" transform="translate(-4 -13.83)"/><path class="cls-5" d="M385.52,209.11c-.62.35-.94.65-1.63,1.07a15.21,15.21,0,0,0,.72,1.65c.4.83,1.07,2,1.35,2.71.16.42,0,.62-.45.79-.18.07-.64-.4-1-1s-.6-1.26-.76-1.59c-.3-.61-.58-1.21-.86-1.89a7.78,7.78,0,0,1-1.42,1.12c-.27.1-.58-.21-.64-.36-.15-.39,0-.56.28-.74.46-.34.7-.6,1.41-1.1-.4-1-1-3.63-.54-3.8.2-.08.75-.18.91.23a1.8,1.8,0,0,1,.12.63,11,11,0,0,0,.53,2.39,5.11,5.11,0,0,1,1.71-1s.44.18.49.31A.51.51,0,0,1,385.52,209.11Z" transform="translate(-4 -13.83)"/><path class="cls-5" d="M386.62,206.85c-.24.12-.8-.29-.81-.32-.09-.19-.07-.79.25-.95a.7.7,0,0,1,.82.31A.64.64,0,0,1,386.62,206.85Zm.31,1.8c-.29-.58-.23-1.27,0-1.39s.68,0,.9.42c.07.13.53,1.46.79,2,.1.2.84,1.54,1,1.79s.64.89.15,1.11-.87-.07-1.23-.79Z" transform="translate(-4 -13.83)"/><path class="cls-5" d="M396.57,207.4a7.56,7.56,0,0,1-2.46,2.81,2.23,2.23,0,0,1-3.39-.61,4,4,0,0,1-.55-2.45,3.57,3.57,0,0,1,1.51-2.58,1.3,1.3,0,0,1,2.1.46.66.66,0,0,1-.22.89c-.58.37-.9-.83-1.38-.53-1,.66-1.11,2.54-.45,3.53a1.28,1.28,0,0,0,1.94.32,6.74,6.74,0,0,0,1.35-1.44,6.87,6.87,0,0,0,.52-.92.64.64,0,0,1,.11-.16c.21-.17.64-.28.83,0A.7.7,0,0,1,396.57,207.4Z" transform="translate(-4 -13.83)"/><path class="cls-5" d="M404.65,201c-.65.65-2.22-.28-2.86-.74.52,1,1.17,3.28.69,3.77s-1-.08-1.33-.3a31,31,0,0,1-2.53-1.95c-.56-.52-.83-.63-1.12-.92a.64.64,0,0,1-.07-.85c.56-.56,1.11,0,1.42.38.11.13.2.24.29.33s1.88,1.49,2.44,1.92a15.93,15.93,0,0,0-.91-2.53,3.74,3.74,0,0,0-.37-.46.57.57,0,0,1,.07-.79c.54-.54,1.08.15,1.44.36s1.86,1.11,2,.93c.56-.56-1.12-2.76-1.36-3a.82.82,0,0,1-.12-1.13.57.57,0,0,1,.68,0C403.19,196.11,405.94,199.71,404.65,201Z" transform="translate(-4 -13.83)"/><path class="cls-5" d="M409.19,196.19a2.49,2.49,0,0,1-3.31.71,3,3,0,0,1-1.24-2,4.06,4.06,0,0,1,.42-3c.33-.45,1.22-1.23,2-.67,1.27.93.7,2.65-.1,3.74,0,.06-.44.53-.64.74a1.38,1.38,0,0,0,2-.08,3.85,3.85,0,0,0,.84-2.51.76.76,0,0,1,.07-.38.69.69,0,0,1,.83-.12C410.53,193,409.91,195.21,409.19,196.19ZM406,192.34a4.07,4.07,0,0,0-.27,2.48,4.06,4.06,0,0,0,.81-1.21c.27-.62.24-1.26-.1-1.51C406.35,192,406.19,192.07,406,192.34Z" transform="translate(-4 -13.83)"/><path class="cls-5" d="M413.35,190.16c-.12.22-.45.32-.67.41a1.37,1.37,0,0,1-.12.45c-.25.46-.67.35-1,.23a26.1,26.1,0,0,1-3.8-1.8c-1.16-.63-2.29-1.31-3.45-1.95-.38-.21-1.13-.63-.82-1.2s.91-.29,1.25,0a1.8,1.8,0,0,0,.27.22,35.94,35.94,0,0,0,3.93,2.22,3.13,3.13,0,0,1-.13-3,1.7,1.7,0,0,1,2.08-.44C412.19,186,414.41,188.19,413.35,190.16Zm-3.71-3.67c-.6,1.09.43,2.75,1.37,3.26.15.08.58.21.71.27a2,2,0,0,1,.08-.25c.13-.24.55-.11.61-.21.49-.9-1-2.62-1.76-3C410.32,186.33,409.88,186,409.64,186.48Z" transform="translate(-4 -13.83)"/><path class="cls-3" d="M345.69,170.89h1.42v7.63h3.13v1.25h-4.55Z" transform="translate(-4 -13.83)"/><path class="cls-3" d="M351.12,170.89h1.25v1.32h-1.25Zm0,2.35h1.25v6.52h-1.25Z" transform="translate(-4 -13.83)"/><path class="cls-3" d="M354,173.24h1.17v1a2.25,2.25,0,0,1,2.21-1.2c2.09,0,2.64,1.54,2.64,2.89v3.83h-1.26v-3.54c0-1.17-.46-2-1.73-2a1.69,1.69,0,0,0-1.79,1.91v3.63H354Z" transform="translate(-4 -13.83)"/><path class="cls-3" d="M361.67,170.89h1.26v4.93l2.55-2.58H367l-2.9,2.87,3,3.66h-1.45l-2.7-3.36v3.36h-1.26Z" transform="translate(-4 -13.83)"/><path class="cls-3" d="M368.85,176.9a2.13,2.13,0,0,0,2.19,2,2,2,0,0,0,1.88-1.1h1.3a3.59,3.59,0,0,1-1.32,1.62A3.31,3.31,0,0,1,371,180a3.45,3.45,0,1,1,2.4-5.95,3.52,3.52,0,0,1,1,2.89Zm4.34-1a2.1,2.1,0,0,0-2.16-1.81,2.08,2.08,0,0,0-2.16,1.81Z" transform="translate(-4 -13.83)"/><path class="cls-3" d="M382.27,179.76h-1.2v-1.14a2.58,2.58,0,0,1-2.43,1.33,3.46,3.46,0,0,1,0-6.91,2.69,2.69,0,0,1,2.41,1.26v-3.42h1.25Zm-5.73-3.26a2.23,2.23,0,0,0,2.29,2.29,2.28,2.28,0,0,0,1.63-.68,2.17,2.17,0,0,0,.63-1.64,2.22,2.22,0,0,0-.66-1.61,2.3,2.3,0,0,0-3.9,1.63Z" transform="translate(-4 -13.83)"/><path class="cls-3" d="M350.22,182.89H353a4.33,4.33,0,0,1,3.65,1.44,4.52,4.52,0,0,1,1,3c0,2.59-1.4,4.45-4.52,4.45h-2.84Zm1.42,7.63h1.5a2.84,2.84,0,0,0,3-3.18,3.56,3.56,0,0,0-.72-2.27,2.87,2.87,0,0,0-2.31-.94h-1.51Z" transform="translate(-4 -13.83)"/><path class="cls-3" d="M365.51,191.76h-1.25v-1.14a2.63,2.63,0,0,1-2.42,1.33,3.46,3.46,0,0,1,0-6.91,2.63,2.63,0,0,1,2.42,1.34v-1.15h1.25Zm-5.77-3.24a2.24,2.24,0,0,0,2.28,2.27,2.13,2.13,0,0,0,2-1.29,2.46,2.46,0,0,0,.23-1,2.08,2.08,0,0,0-.19-1,2.18,2.18,0,0,0-2.09-1.34,2.23,2.23,0,0,0-2.25,2.3Z" transform="translate(-4 -13.83)"/><path class="cls-3" d="M367.63,186.21h-1.17v-1h1.17v-2.35h1.25v2.35h1.26v1h-1.26v5.55h-1.25Z" transform="translate(-4 -13.83)"/><path class="cls-3" d="M377.72,191.76h-1.25v-1.14A2.63,2.63,0,0,1,374,192a3.46,3.46,0,0,1,0-6.91,2.63,2.63,0,0,1,2.42,1.34v-1.15h1.25Zm-5.77-3.24a2.24,2.24,0,0,0,2.28,2.27,2.13,2.13,0,0,0,2-1.29,2.44,2.44,0,0,0,.23-1,2.08,2.08,0,0,0-.19-1,2.18,2.18,0,0,0-2.09-1.34,2.23,2.23,0,0,0-2.25,2.3Z" transform="translate(-4 -13.83)"/><path class="cls-3" d="M374.49,156.6a5.84,5.84,0,0,0-.6-.27H374s-1.28-.57-1.39-4.68,1.22-4.81,1.22-4.81h-.19a5.74,5.74,0,1,0-8.28-4.19l-.07-.1s.34,1.49-3.16,3.66-5.08,1.09-5.08,1.09l.1.15-.3-.18a5.74,5.74,0,1,0,.89,9.54l0,.07s1.27-1,4.94.92c2.9,1.55,3.33,3.08,3.38,3.65a5.73,5.73,0,1,0,8.42-4.86Zm-23.69-1.24,0,0,0,0Zm6.09-6.67c-.72-.66-2.49-.55-4,.46a1.19,1.19,0,0,1,.33.76,1.2,1.2,0,0,1-1.15,1.26,1.19,1.19,0,0,1-.31,0l-.09,0a.75.75,0,0,0-.84.31c-.8,1.52-.82,3.12,0,3.88a4.55,4.55,0,0,1,6.14-6.63Zm10.76-10.19a4.31,4.31,0,0,1,6-.6h0c-.72-.66-2.49-.55-4,.46a1.19,1.19,0,0,1,.33.76,1.19,1.19,0,0,1-1.45,1.23l-.09,0a.75.75,0,0,0-.84.31c-.8,1.52-.82,3.12,0,3.88A4.31,4.31,0,0,1,367.64,138.5Zm-4.2,17.71c-3-1.62-3.47-3-3.53-3.38a5.65,5.65,0,0,0-.07-1.47l0,0s-.25-1.32,3.21-3.46c3.09-1.92,4.5-1.54,4.76-1.44a5.66,5.66,0,0,0,1.6.76c.43.41,1.21,1.55,1.29,4.58s-.81,4.22-1.3,4.64a5.69,5.69,0,0,0-1.4.9C367.56,157.52,366.24,157.7,363.45,156.21Zm5.11,8.29,0,0,0,0Zm6.09-6.67c-.73-.66-2.49-.55-4,.46a1.19,1.19,0,0,1,.33.76,1.19,1.19,0,0,1-1.45,1.23l-.09,0a.75.75,0,0,0-.84.31c-.8,1.52-.82,3.12,0,3.88a4.55,4.55,0,0,1,6.14-6.63Z" transform="translate(-4 -13.83)"/><path class="cls-5" d="M155.3,85.26a2.08,2.08,0,0,1-2-2,3.1,3.1,0,0,1,.53-1.6,4.73,4.73,0,0,1,3.33-1.95c1.29,0,2.67.79,2.67,2.1C159.87,83.73,157.5,85.27,155.3,85.26Zm2.12-4.44a3,3,0,0,0-2.82,2.63c0,.55.43.79,1,.79a3.73,3.73,0,0,0,1.71-.57,2.47,2.47,0,0,0,1.32-1.81A1.22,1.22,0,0,0,157.41,80.82Z" transform="translate(-4 -13.83)"/><path class="cls-5" d="M160.82,79.64a.72.72,0,0,1,.66-.67c.46,0,.71.66.71.79,0,.3-.14,1.93-.21,3.15l.29-1c.36-1,1.07-2.21,2.42-2.21.9,0,1.26,1.32,1.44,1.95a17.47,17.47,0,0,1,.45,2.66c0,.39,0,.82-.45.82a.64.64,0,0,1-.67-.51c-.18-.93,0-1.29-.26-2.23-.12-.51-.46-1.48-.69-1.46a1.29,1.29,0,0,0-.84.5,10.49,10.49,0,0,0-1.58,3.69c-.08.47-.32.66-.54.66-.42,0-.66-.18-.66-.69s0-2.69,0-3.24C160.91,81.14,160.82,80.39,160.82,79.64Z" transform="translate(-4 -13.83)"/><path class="cls-5" d="M169.08,76.82l-.1,4.93a20.9,20.9,0,0,0,.06,2.56c0,.42.17,1.19-.4,1.2s-.74-.92-.75-1.4c-.08-2.44,0-4.92,0-7.33a8.92,8.92,0,0,1,0-.9.74.74,0,0,1,.74-.66c.34,0,.48.39.49.81A5.69,5.69,0,0,1,169.08,76.82Z" transform="translate(-4 -13.83)"/><path class="cls-5" d="M173.63,84.19a1.37,1.37,0,0,1,.08.39.62.62,0,0,1-.5.51c-.15.31-.84,1.8-1,2.14-.33.75-.48,1.26-.67,1.6a.59.59,0,0,1-.55.3.51.51,0,0,1-.57-.48c0-.35,1.44-3.33,1.71-3.94-.18-.41-1.32-3.1-1.5-3.57a4.3,4.3,0,0,1-.51-1.26c0-.37.29-.52.69-.52.15,0,.31.15.45.45s.23.52.36.85c.33.79.86,2.07,1.17,2.85.41-.92,1-2.53,1.28-3.39a.58.58,0,0,1,.57-.36c.35,0,.5.44.5.6S174,83.37,173.63,84.19Z" transform="translate(-4 -13.83)"/><path class="cls-5" d="M180.24,79c-.27,0-.58-.61-.58-.65,0-.21.29-.73.65-.73a.7.7,0,0,1,.6.65C180.9,78.8,180.63,79,180.24,79Zm-.52,1.75c0-.65.36-1.24.61-1.24s.62.3.62.78c0,.15-.18,1.54-.18,2.13,0,.23.06,1.75.06,2s.18,1.08-.36,1.06-.75-.45-.75-1.26Z" transform="translate(-4 -13.83)"/><path class="cls-5" d="M182.46,79.64a.72.72,0,0,1,.66-.67c.46,0,.71.66.71.79,0,.3-.14,1.93-.21,3.15l.29-1c.36-1,1.07-2.21,2.42-2.21.9,0,1.26,1.32,1.44,1.95a17.47,17.47,0,0,1,.45,2.66c0,.39,0,.82-.45.82a.64.64,0,0,1-.67-.51c-.18-.93,0-1.29-.26-2.23-.12-.51-.46-1.48-.69-1.46a1.29,1.29,0,0,0-.84.5,10.49,10.49,0,0,0-1.58,3.69c-.08.47-.32.66-.54.66-.42,0-.66-.18-.66-.69s0-2.69,0-3.24C182.55,81.14,182.46,80.39,182.46,79.64Z" transform="translate(-4 -13.83)"/><path class="cls-5" d="M197.63,77.24c-.58,0-.29-1.08-.93-1.08a.82.82,0,0,0-.34.25,6.34,6.34,0,0,0-1.12,3.46,10.75,10.75,0,0,1,1.7-.24c.24,0,.69,0,.69.33a.85.85,0,0,1-.85.76c-.17,0-.36,0-.5,0-.33,0-.71.14-1,.17v.93a8.39,8.39,0,0,0,.51,2.52,1.54,1.54,0,0,1,.27.51c0,.46-.62.71-.95.71-.55,0-1-3.69-1-3.88s0-.37,0-.57a10.23,10.23,0,0,1-1.4.39c-.28,0-.42-.3-.42-.57,0-.72,1.28-.75,1.79-.81,0-1.33.71-4.95,2.68-4.95a1.68,1.68,0,0,1,1.56,1.42C198.26,76.7,198.11,77.24,197.63,77.24Z" transform="translate(-4 -13.83)"/><path class="cls-5" d="M200.91,85.53a2.48,2.48,0,0,1-2.53-2.25,3,3,0,0,1,.88-2.19,4.06,4.06,0,0,1,2.67-1.44c.55,0,1.71.25,1.71,1.2,0,1.58-1.73,2.13-3.08,2.13l-1-.07a1.38,1.38,0,0,0,1.26,1.59,3.85,3.85,0,0,0,2.52-.81.76.76,0,0,1,.34-.17c.35,0,.58.42.58.6C204.3,84.71,202.13,85.53,200.91,85.53Zm1.23-4.83A4.08,4.08,0,0,0,200,81.95a4.08,4.08,0,0,0,1.46-.06c.66-.15,1.15-.56,1.15-1C202.59,80.78,202.46,80.67,202.14,80.7Z" transform="translate(-4 -13.83)"/><path class="cls-5" d="M210.06,85.14c-.92,0-1.37-1.77-1.5-2.55-.33,1.06-1.5,3.15-2.19,3.15s-.66-.78-.72-1.16a31.1,31.1,0,0,1-.41-3.17c0-.76-.13-1-.13-1.44,0-.21.17-.65.55-.65.79,0,.78.79.73,1.27,0,.17,0,.31,0,.44,0,.31.27,2.38.36,3.09a16,16,0,0,0,1.16-2.43,3.83,3.83,0,0,0,.06-.58.57.57,0,0,1,.61-.51c.77,0,.66.87.77,1.27.06.24.52,2.1.78,2.1.79,0,1.17-2.74,1.17-3.09A.82.82,0,0,1,212,80a.58.58,0,0,1,.51.45C212.51,80.64,211.89,85.14,210.06,85.14Z" transform="translate(-4 -13.83)"/><path class="cls-5" d="M225.9,85.59a.69.69,0,0,1-.67-.55,9,9,0,0,0-.71-2.07c-.24-.51-.66-1.29-1-1.29-.18,0-.45.28-.61.63s-.27.93-.44,1.33c-.27.67-.46,1.35-.52,1.46s-.27.3-.57.3-.66-.18-.71-.56-.22-1.23-.3-1.71-.34-2-.74-2.19c-.13,0-.51.64-.66,1a7.26,7.26,0,0,0-.54,1.48c-.11.58-.14.9-.21,1.44a.75.75,0,0,1-.59.63c-.42,0-.6-.17-.64-.69.06-1.17-.12-3.93-.12-4.77,0-.15.2-.75.58-.75.63,0,.57.51.51,1.21,0,.17,0,1.2,0,1.59l.3-.84c.18-.54.77-1.6,1.38-1.6,1,0,1.61,2,1.85,3.87a19.79,19.79,0,0,1,.69-2,1.69,1.69,0,0,1,1.53-.93c1,0,1.95,2,2.19,2.7a6.08,6.08,0,0,1,.46,1.83A.5.5,0,0,1,225.9,85.59Z" transform="translate(-4 -13.83)"/><path class="cls-5" d="M228.11,79c-.27,0-.58-.61-.58-.65,0-.21.29-.73.65-.73a.7.7,0,0,1,.6.65C228.77,78.8,228.5,79,228.11,79Zm-.52,1.75c0-.65.36-1.24.61-1.24s.62.3.62.78c0,.15-.18,1.54-.18,2.13,0,.23.06,1.75.06,2s.18,1.08-.36,1.06-.75-.45-.75-1.26Z" transform="translate(-4 -13.83)"/><path class="cls-5" d="M230.33,79.64A.72.72,0,0,1,231,79c.46,0,.71.66.71.79,0,.3-.14,1.93-.21,3.15l.29-1c.36-1,1.07-2.21,2.42-2.21.9,0,1.26,1.32,1.44,1.95a17.47,17.47,0,0,1,.45,2.66c0,.39,0,.82-.45.82a.65.65,0,0,1-.68-.51c-.18-.93,0-1.29-.25-2.23-.12-.51-.46-1.48-.69-1.46a1.29,1.29,0,0,0-.84.5,10.49,10.49,0,0,0-1.58,3.69c-.08.47-.32.66-.54.66-.42,0-.66-.18-.66-.69s0-2.69,0-3.24C230.42,81.14,230.33,80.39,230.33,79.64Z" transform="translate(-4 -13.83)"/><path class="cls-5" d="M242.27,83.15c0,.63,0,1.14,0,1.79a.7.7,0,0,1-.69.63c-.6,0-.5-.67-.51-1s.06-1.14.1-1.74c-.43,1-1.6,2.62-2.64,2.62s-1.21-1.77-1.32-2.37a20.21,20.21,0,0,1-.19-2.5c0-.36.15-.9.6-.9a.76.76,0,0,1,.71.82,11.13,11.13,0,0,0,0,2.55c0,.18.13,1.23.41,1.23s2.11-2.67,2.29-3.13a2.36,2.36,0,0,0,.07-.55.54.54,0,0,1,.59-.48.62.62,0,0,1,.61.61C242.39,81.1,242.27,82.46,242.27,83.15Z" transform="translate(-4 -13.83)"/><path class="cls-5" d="M248.43,80.55c-.71.1-1.11.27-1.91.4a15.27,15.27,0,0,0,.08,1.8c.08.92.27,2.27.27,3,0,.45-.25.57-.71.57-.19,0-.45-.6-.51-1.32s-.1-1.4-.13-1.75c-.06-.67-.11-1.33-.12-2.07a7.81,7.81,0,0,1-1.72.52c-.29,0-.46-.41-.46-.57,0-.42.24-.51.52-.58.55-.15.87-.3,1.71-.51,0-1.11.42-3.73.87-3.73.21,0,.76.1.76.54a1.79,1.79,0,0,1-.12.63,11.16,11.16,0,0,0-.37,2.42,5.14,5.14,0,0,1,2-.3s.34.33.34.46A.51.51,0,0,1,248.43,80.55Z" transform="translate(-4 -13.83)"/><path class="cls-5" d="M251.93,85.53a2.48,2.48,0,0,1-2.53-2.25,3,3,0,0,1,.88-2.19,4.06,4.06,0,0,1,2.67-1.44c.55,0,1.71.25,1.71,1.2,0,1.58-1.73,2.13-3.08,2.13l-1-.07a1.38,1.38,0,0,0,1.26,1.59,3.85,3.85,0,0,0,2.52-.81.76.76,0,0,1,.34-.17c.35,0,.58.42.58.6C255.32,84.71,253.14,85.53,251.93,85.53Zm1.23-4.83A4.08,4.08,0,0,0,251,81.95a4.08,4.08,0,0,0,1.46-.06c.66-.15,1.15-.56,1.15-1C253.61,80.78,253.47,80.67,253.16,80.7Z" transform="translate(-4 -13.83)"/><path class="cls-5" d="M258.77,85.11a6.94,6.94,0,0,1-2.25.87c-.36,0-.53,0-.53-.46s1-.66,1.31-.81a6.92,6.92,0,0,0,.75-.36c.76-.45,1.63-1.14,1.63-1.52,0-.12-.2-.06-.45,0s-.83.08-1.29.09c-.92,0-1.91-.21-1.91-1.24,0-.81,2.21-2.35,2.91-2.6a3.1,3.1,0,0,1,1-.27c.38,0,.64.51.64.66a.79.79,0,0,1-.21.57c-.1.1-.31.24-.48.08a.51.51,0,0,0-.55-.09,5.19,5.19,0,0,0-2.18,1.68c0,.31.84.19,1,.18.78-.08,2.59-.12,2.59.93S259.32,84.79,258.77,85.11Z" transform="translate(-4 -13.83)"/><path class="cls-5" d="M264.18,85.42a.71.71,0,0,1-.69-.67.69.69,0,0,1,.63-.77.88.88,0,0,1,.75.72A.78.78,0,0,1,264.18,85.42Zm.42-3.85c-.09.58-.37.84-.45.84s-.37-.31-.42-1.06,0-1.62,0-3c0-.62-.3-3,.69-3,.43,0,.51,1,.51,1.19C264.9,77.06,264.81,80.1,264.6,81.57Z" transform="translate(-4 -13.83)"/><path class="cls-5" d="M218.76,151.84a20.52,20.52,0,0,1,7.23-1.07,8.81,8.81,0,0,1,2.76.49q1,.41,1.14,1.06l.18,1.2q.1.65-.79,1.34a8.81,8.81,0,0,1-2.5,1.27,20.57,20.57,0,0,1-7.23,1.06,8.77,8.77,0,0,1-2.76-.49q-1.05-.41-1.14-1.06l-.18-1.2c-.06-.43.2-.88.79-1.34A8.81,8.81,0,0,1,218.76,151.84Zm.41,6.56a21.86,21.86,0,0,0,8.31-1.23,8.27,8.27,0,0,0,2.88-1.64l.23,1.6c.06.43-.2.88-.79,1.34a8.8,8.8,0,0,1-2.5,1.27,20.58,20.58,0,0,1-7.23,1.07,8.86,8.86,0,0,1-2.76-.49c-.7-.27-1.08-.63-1.14-1.06l-.24-1.6A8.28,8.28,0,0,0,219.17,158.4Zm.53,3.6a21.86,21.86,0,0,0,8.32-1.23,8.29,8.29,0,0,0,2.87-1.64l.24,1.59c.06.43-.2.88-.79,1.34a8.8,8.8,0,0,1-2.5,1.27,20.52,20.52,0,0,1-7.23,1.07,8.84,8.84,0,0,1-2.76-.49c-.7-.27-1.08-.63-1.14-1.06l-.24-1.6A8.25,8.25,0,0,0,219.7,162Zm.53,3.6a21.81,21.81,0,0,0,8.32-1.23,8.29,8.29,0,0,0,2.87-1.64l.24,1.6c.06.43-.2.88-.79,1.34a8.83,8.83,0,0,1-2.5,1.26,20.52,20.52,0,0,1-7.23,1.07,8.84,8.84,0,0,1-2.76-.49c-.7-.27-1.08-.63-1.14-1.06l-.24-1.6A8.25,8.25,0,0,0,220.23,165.6Z" transform="translate(-4 -13.83)"/><line class="cls-9" x1="132" y1="62.17" x2="139" y2="75.17"/><line class="cls-9" x1="277" y1="62.17" x2="270" y2="75.17"/><line class="cls-9" x1="135" y1="62.17" x2="142" y2="75.17"/><line class="cls-9" x1="280" y1="62.17" x2="273" y2="75.17"/><polygon class="cls-10" points="327.67 10.66 321.06 12.83 319.3 21 317.34 12.76 310.67 10.34 317.28 8.17 319.04 0 321 8.24 327.67 10.66"/><polygon class="cls-10" points="422.67 80.66 416.06 82.83 414.3 91 412.34 82.76 405.67 80.34 412.28 78.17 414.04 70 416 78.24 422.67 80.66"/><polygon class="cls-10" points="414 90.68 409.72 92.01 408.58 97 407.31 91.97 403 90.48 407.28 89.16 408.42 84.17 409.69 89.2 414 90.68"/><polygon class="cls-10" points="310 171.68 305.72 173.01 304.58 178 303.31 172.97 299 171.49 303.28 170.16 304.42 165.17 305.69 170.2 310 171.68"/><polygon class="cls-10" points="427.67 155.66 421.06 157.83 419.3 166 417.34 157.76 410.67 155.34 417.28 153.17 419.04 145 421 153.24 427.67 155.66"/><path class="cls-9" d="M167.5,185.5c15.94-7.85,34.16-25.8,39.17-40.17-1.89.78-7.28,2.39-9.17,3.17" transform="translate(-4 -13.83)"/><path class="cls-5" d="M164.08,180.25a8.57,8.57,0,0,1-3.17,2.81c-1.88.88-3.13.09-3.72-1.17a4.53,4.53,0,0,1-.28-2.84,4,4,0,0,1,2.06-2.69,1.47,1.47,0,0,1,2.3.82.74.74,0,0,1-.37,1c-.71.33-.89-1.07-1.48-.79-1.26.59-1.61,2.7-1,3.91a1.45,1.45,0,0,0,2.14.63,7.63,7.63,0,0,0,1.72-1.42,7.9,7.9,0,0,0,.72-1,.73.73,0,0,1,.15-.16c.26-.16.76-.22.93.15A.79.79,0,0,1,164.08,180.25Z" transform="translate(-4 -13.83)"/><path class="cls-5" d="M162.5,171.08l2.56,5a23.86,23.86,0,0,0,1.44,2.52c.27.39.8,1.09.24,1.42s-1.23-.52-1.5-1c-1.39-2.4-2.62-4.92-3.92-7.33a9.92,9.92,0,0,1-.5-.89.83.83,0,0,1,.38-1.05c.34-.19.69.13.93.54A6.57,6.57,0,0,1,162.5,171.08Z" transform="translate(-4 -13.83)"/><path class="cls-5" d="M165.83,172.07c-.26.15-.92-.27-.94-.29-.12-.21-.14-.88.21-1.09a.8.8,0,0,1,1,.29A.72.72,0,0,1,165.83,172.07Zm.49,2c-.37-.63-.36-1.42-.11-1.57s.77-.06,1,.41c.09.15.71,1.61,1,2.19.13.22,1.07,1.68,1.22,1.95s.8,1,.26,1.25-1,0-1.46-.8Z" transform="translate(-4 -13.83)"/><path class="cls-5" d="M177.09,172.27a8.57,8.57,0,0,1-2.7,3.26c-1.72,1.15-3.08.57-3.85-.59a4.54,4.54,0,0,1-.7-2.76,4,4,0,0,1,1.63-3,1.47,1.47,0,0,1,2.4.46.74.74,0,0,1-.22,1c-.65.44-1-.92-1.58-.56-1.16.78-1.18,2.92-.4,4a1.45,1.45,0,0,0,2.21.3,7.63,7.63,0,0,0,1.48-1.67,7.74,7.74,0,0,0,.56-1.05.72.72,0,0,1,.12-.18c.23-.2.71-.34.94,0A.79.79,0,0,1,177.09,172.27Z" transform="translate(-4 -13.83)"/><path class="cls-5" d="M181.18,167.92c.45-.15,2.06-.84,2.42-.39a.71.71,0,0,1-.12,1,17.55,17.55,0,0,1-4.06,1.09c.5.34,1.69.92.9,1.57s-1.65-.57-2.07-1c-.46.11-1,.47-1.36,0s-.09-.65,0-1.11a53.34,53.34,0,0,1-3.72-4.33c-.15-.18-1.26-1.8-.74-2.23.16-.13.71-.4,1-.11a5.15,5.15,0,0,1,.44.76,5,5,0,0,0,.35.68,31.72,31.72,0,0,0,3.29,3.88,21,21,0,0,0,.85-2.51c.08-.35.08-.92.4-1.18a.69.69,0,0,1,.93.17c.26.32.08.79,0,1.17a18.41,18.41,0,0,1-.75,2,6,6,0,0,0-.4,1.34c.06.08.49-.09,1-.25Z" transform="translate(-4 -13.83)"/><path class="cls-5" d="M185.6,159.94c.44.51.45.94.39,1s-.55.09-1.23-.42-1.41-1.18-2.6-2.17c-.53-.45-2.82-2-2.09-2.81.32-.38,1.22.28,1.4.43C181.92,156.36,184.48,158.67,185.6,159.94Zm3,3.2a.8.8,0,0,1-1.09.1.78.78,0,0,1-.2-1.11,1,1,0,0,1,1.17-.12A.88.88,0,0,1,188.61,163.13Z" transform="translate(-4 -13.83)"/></svg>